M48
; DRILL file {KiCad (5.1.6)-1} date 11/14/20 16:31:56
; FORMAT={-:-/ absolute / inch / decimal}
; #@! TF.CreationDate,2020-11-14T16:31:56+00:00
; #@! TF.GenerationSoftware,Kicad,Pcbnew,(5.1.6)-1
; #@! TF.FileFunction,Plated,1,2,PTH
FMAT,2
INCH
T1C0.0157
%
G90
G05
T1
X4.1453Y-2.2087
X4.1453Y-2.248
X4.1453Y-2.2874
X4.1846Y-2.2087
X4.1846Y-2.248
X4.1846Y-2.2874
X4.1902Y-2.4055
X4.197Y-2.9581
X4.197Y-3.0171
X4.197Y-3.0762
X4.197Y-3.1352
X4.197Y-3.1943
X4.2561Y-2.9581
X4.2561Y-3.0171
X4.2561Y-3.0762
X4.2561Y-3.1352
X4.2561Y-3.1943
X4.2933Y-2.2874
X4.2933Y-2.3268
X4.2933Y-2.4059
X4.3697Y-2.589
X4.3697Y-2.648
X4.3697Y-2.7071
X4.4287Y-2.589
X4.4287Y-2.648
X4.4287Y-2.7071
X4.4878Y-2.589
X4.4878Y-2.648
X4.4878Y-2.7071
X4.5049Y-2.9636
X4.5469Y-2.589
X4.5469Y-2.648
X4.5469Y-2.7071
X4.6059Y-2.589
X4.6059Y-2.648
X4.6059Y-2.7071
X4.6738Y-3.0764
X4.6738Y-3.1354
X4.6738Y-3.1945
X4.7329Y-3.0764
X4.7329Y-3.1354
X4.7329Y-3.1945
X4.7919Y-3.0764
X4.7919Y-3.1354
X4.7919Y-3.1945
X4.851Y-3.0764
X4.851Y-3.1354
X4.851Y-3.1945
X4.8917Y-2.7091
X4.8919Y-2.288
X4.91Y-3.0764
X4.91Y-3.1354
X4.91Y-3.1945
X4.9406Y-2.2594
X4.9406Y-2.7445
X4.9691Y-3.0764
X4.9691Y-3.1354
X4.9691Y-3.1945
X4.998Y-2.7984
X5.0602Y-2.7984
X5.1762Y-2.6604
X5.1762Y-2.7195
X5.1762Y-2.7785
X5.1762Y-2.8376
X5.1762Y-2.8967
X5.1925Y-2.0209
X5.2323Y-2.0209
X5.2352Y-2.6604
X5.2352Y-2.7195
X5.2352Y-2.7785
X5.2352Y-2.8376
X5.2352Y-2.8967
X5.2717Y-2.1287
X5.2943Y-2.6604
X5.2943Y-2.7195
X5.2943Y-2.7785
X5.2943Y-2.8376
X5.2943Y-2.8967
X5.311Y-2.1287
X5.3533Y-2.6604
X5.3533Y-2.7195
X5.3533Y-2.7785
X5.3533Y-2.8376
X5.3533Y-2.8967
X5.3898Y-2.0209
X5.4124Y-2.6604
X5.4124Y-2.7195
X5.4124Y-2.7785
X5.4124Y-2.8376
X5.4124Y-2.8967
X5.4276Y-2.0209
T0
M30
