%TF.GenerationSoftware,KiCad,Pcbnew,(5.1.6)-1*%
%TF.CreationDate,2020-11-14T16:31:53+00:00*%
%TF.ProjectId,Displayboard4,44697370-6c61-4796-926f-617264342e6b,rev?*%
%TF.SameCoordinates,Original*%
%TF.FileFunction,Paste,Top*%
%TF.FilePolarity,Positive*%
%FSLAX46Y46*%
G04 Gerber Fmt 4.6, Leading zero omitted, Abs format (unit mm)*
G04 Created by KiCad (PCBNEW (5.1.6)-1) date 2020-11-14 16:31:53*
%MOMM*%
%LPD*%
G01*
G04 APERTURE LIST*
%ADD10R,0.250000X1.100000*%
%ADD11R,1.700000X1.500000*%
%ADD12R,1.800000X0.800000*%
%ADD13R,1.500000X0.600000*%
%ADD14R,0.600000X1.500000*%
%ADD15R,0.800000X1.800000*%
%ADD16R,1.000000X1.000000*%
G04 APERTURE END LIST*
D10*
%TO.C,U1*%
X129750000Y-75870000D03*
X129250000Y-75870000D03*
X128750000Y-75870000D03*
X128250000Y-75870000D03*
X127750000Y-75870000D03*
X127250000Y-75870000D03*
X126750000Y-75870000D03*
X126250000Y-75870000D03*
X125750000Y-75870000D03*
X125250000Y-75870000D03*
X124750000Y-75870000D03*
X124250000Y-75870000D03*
X123750000Y-75870000D03*
X123250000Y-75870000D03*
X122750000Y-75870000D03*
X122250000Y-75870000D03*
X121750000Y-75870000D03*
X121250000Y-75870000D03*
X120750000Y-75870000D03*
X120250000Y-75870000D03*
X119750000Y-75870000D03*
X119250000Y-75870000D03*
X118750000Y-75870000D03*
X118250000Y-75870000D03*
X117750000Y-75870000D03*
X117250000Y-75870000D03*
X116750000Y-75870000D03*
X115750000Y-75870000D03*
X115250000Y-75870000D03*
X116250000Y-75870000D03*
D11*
X131400000Y-79770000D03*
X113600000Y-79770000D03*
%TD*%
%TO.C,C2*%
G36*
G01*
X116525001Y-71125000D02*
X115674999Y-71125000D01*
G75*
G02*
X115425000Y-70875001I0J249999D01*
G01*
X115425000Y-69799999D01*
G75*
G02*
X115674999Y-69550000I249999J0D01*
G01*
X116525001Y-69550000D01*
G75*
G02*
X116775000Y-69799999I0J-249999D01*
G01*
X116775000Y-70875001D01*
G75*
G02*
X116525001Y-71125000I-249999J0D01*
G01*
G37*
G36*
G01*
X116525001Y-74000000D02*
X115674999Y-74000000D01*
G75*
G02*
X115425000Y-73750001I0J249999D01*
G01*
X115425000Y-72674999D01*
G75*
G02*
X115674999Y-72425000I249999J0D01*
G01*
X116525001Y-72425000D01*
G75*
G02*
X116775000Y-72674999I0J-249999D01*
G01*
X116775000Y-73750001D01*
G75*
G02*
X116525001Y-74000000I-249999J0D01*
G01*
G37*
%TD*%
D12*
%TO.C,J1*%
X107825000Y-63100000D03*
X110525000Y-63100000D03*
X110525000Y-51600000D03*
X107825000Y-51600000D03*
D13*
X107675000Y-52600000D03*
X107675000Y-53600000D03*
X107675000Y-54600000D03*
X107675000Y-55600000D03*
X107675000Y-56600000D03*
X107675000Y-57600000D03*
X107675000Y-58600000D03*
X107675000Y-59600000D03*
X107675000Y-60600000D03*
X107675000Y-61600000D03*
X110675000Y-62100000D03*
X110675000Y-61100000D03*
X110675000Y-60100000D03*
X110675000Y-59100000D03*
X110675000Y-58100000D03*
X110675000Y-57100000D03*
X110675000Y-56100000D03*
X110675000Y-55100000D03*
X110675000Y-54100000D03*
X110675000Y-53100000D03*
%TD*%
%TO.C,R2*%
G36*
G01*
X119500000Y-73837500D02*
X119500000Y-73362500D01*
G75*
G02*
X119737500Y-73125000I237500J0D01*
G01*
X120312500Y-73125000D01*
G75*
G02*
X120550000Y-73362500I0J-237500D01*
G01*
X120550000Y-73837500D01*
G75*
G02*
X120312500Y-74075000I-237500J0D01*
G01*
X119737500Y-74075000D01*
G75*
G02*
X119500000Y-73837500I0J237500D01*
G01*
G37*
G36*
G01*
X117750000Y-73837500D02*
X117750000Y-73362500D01*
G75*
G02*
X117987500Y-73125000I237500J0D01*
G01*
X118562500Y-73125000D01*
G75*
G02*
X118800000Y-73362500I0J-237500D01*
G01*
X118800000Y-73837500D01*
G75*
G02*
X118562500Y-74075000I-237500J0D01*
G01*
X117987500Y-74075000D01*
G75*
G02*
X117750000Y-73837500I0J237500D01*
G01*
G37*
%TD*%
%TO.C,R1*%
G36*
G01*
X126402500Y-72665000D02*
X125927500Y-72665000D01*
G75*
G02*
X125690000Y-72427500I0J237500D01*
G01*
X125690000Y-71852500D01*
G75*
G02*
X125927500Y-71615000I237500J0D01*
G01*
X126402500Y-71615000D01*
G75*
G02*
X126640000Y-71852500I0J-237500D01*
G01*
X126640000Y-72427500D01*
G75*
G02*
X126402500Y-72665000I-237500J0D01*
G01*
G37*
G36*
G01*
X126402500Y-74415000D02*
X125927500Y-74415000D01*
G75*
G02*
X125690000Y-74177500I0J237500D01*
G01*
X125690000Y-73602500D01*
G75*
G02*
X125927500Y-73365000I237500J0D01*
G01*
X126402500Y-73365000D01*
G75*
G02*
X126640000Y-73602500I0J-237500D01*
G01*
X126640000Y-74177500D01*
G75*
G02*
X126402500Y-74415000I-237500J0D01*
G01*
G37*
%TD*%
D14*
%TO.C,J2*%
X136900000Y-55700000D03*
X135900000Y-55700000D03*
X134900000Y-55700000D03*
X133900000Y-55700000D03*
X132900000Y-55700000D03*
X131900000Y-55700000D03*
X130900000Y-55700000D03*
X129900000Y-55700000D03*
X128900000Y-55700000D03*
X127900000Y-55700000D03*
X128400000Y-52700000D03*
X129400000Y-52700000D03*
X130400000Y-52700000D03*
X131400000Y-52700000D03*
X132400000Y-52700000D03*
X133400000Y-52700000D03*
X134400000Y-52700000D03*
X135400000Y-52700000D03*
X136400000Y-52700000D03*
X137400000Y-52700000D03*
D15*
X138400000Y-52850000D03*
X138400000Y-55550000D03*
X126900000Y-55550000D03*
X126900000Y-52850000D03*
%TD*%
D16*
%TO.C,D2*%
X120275000Y-72000000D03*
X120275000Y-69500000D03*
%TD*%
%TO.C,D1*%
X118275000Y-72000000D03*
X118275000Y-69500000D03*
%TD*%
%TO.C,C5*%
G36*
G01*
X129552500Y-72665000D02*
X129077500Y-72665000D01*
G75*
G02*
X128840000Y-72427500I0J237500D01*
G01*
X128840000Y-71852500D01*
G75*
G02*
X129077500Y-71615000I237500J0D01*
G01*
X129552500Y-71615000D01*
G75*
G02*
X129790000Y-71852500I0J-237500D01*
G01*
X129790000Y-72427500D01*
G75*
G02*
X129552500Y-72665000I-237500J0D01*
G01*
G37*
G36*
G01*
X129552500Y-74415000D02*
X129077500Y-74415000D01*
G75*
G02*
X128840000Y-74177500I0J237500D01*
G01*
X128840000Y-73602500D01*
G75*
G02*
X129077500Y-73365000I237500J0D01*
G01*
X129552500Y-73365000D01*
G75*
G02*
X129790000Y-73602500I0J-237500D01*
G01*
X129790000Y-74177500D01*
G75*
G02*
X129552500Y-74415000I-237500J0D01*
G01*
G37*
%TD*%
%TO.C,C4*%
G36*
G01*
X111937500Y-75674999D02*
X112412500Y-75674999D01*
G75*
G02*
X112650000Y-75912499I0J-237500D01*
G01*
X112650000Y-76487499D01*
G75*
G02*
X112412500Y-76724999I-237500J0D01*
G01*
X111937500Y-76724999D01*
G75*
G02*
X111700000Y-76487499I0J237500D01*
G01*
X111700000Y-75912499D01*
G75*
G02*
X111937500Y-75674999I237500J0D01*
G01*
G37*
G36*
G01*
X111937500Y-73924999D02*
X112412500Y-73924999D01*
G75*
G02*
X112650000Y-74162499I0J-237500D01*
G01*
X112650000Y-74737499D01*
G75*
G02*
X112412500Y-74974999I-237500J0D01*
G01*
X111937500Y-74974999D01*
G75*
G02*
X111700000Y-74737499I0J237500D01*
G01*
X111700000Y-74162499D01*
G75*
G02*
X111937500Y-73924999I237500J0D01*
G01*
G37*
%TD*%
%TO.C,C3*%
G36*
G01*
X127977500Y-72665000D02*
X127502500Y-72665000D01*
G75*
G02*
X127265000Y-72427500I0J237500D01*
G01*
X127265000Y-71852500D01*
G75*
G02*
X127502500Y-71615000I237500J0D01*
G01*
X127977500Y-71615000D01*
G75*
G02*
X128215000Y-71852500I0J-237500D01*
G01*
X128215000Y-72427500D01*
G75*
G02*
X127977500Y-72665000I-237500J0D01*
G01*
G37*
G36*
G01*
X127977500Y-74415000D02*
X127502500Y-74415000D01*
G75*
G02*
X127265000Y-74177500I0J237500D01*
G01*
X127265000Y-73602500D01*
G75*
G02*
X127502500Y-73365000I237500J0D01*
G01*
X127977500Y-73365000D01*
G75*
G02*
X128215000Y-73602500I0J-237500D01*
G01*
X128215000Y-74177500D01*
G75*
G02*
X127977500Y-74415000I-237500J0D01*
G01*
G37*
%TD*%
%TO.C,C1*%
G36*
G01*
X114312500Y-72025000D02*
X113837500Y-72025000D01*
G75*
G02*
X113600000Y-71787500I0J237500D01*
G01*
X113600000Y-71212500D01*
G75*
G02*
X113837500Y-70975000I237500J0D01*
G01*
X114312500Y-70975000D01*
G75*
G02*
X114550000Y-71212500I0J-237500D01*
G01*
X114550000Y-71787500D01*
G75*
G02*
X114312500Y-72025000I-237500J0D01*
G01*
G37*
G36*
G01*
X114312500Y-73775000D02*
X113837500Y-73775000D01*
G75*
G02*
X113600000Y-73537500I0J237500D01*
G01*
X113600000Y-72962500D01*
G75*
G02*
X113837500Y-72725000I237500J0D01*
G01*
X114312500Y-72725000D01*
G75*
G02*
X114550000Y-72962500I0J-237500D01*
G01*
X114550000Y-73537500D01*
G75*
G02*
X114312500Y-73775000I-237500J0D01*
G01*
G37*
%TD*%
M02*
