%TF.GenerationSoftware,KiCad,Pcbnew,(5.1.6)-1*%
%TF.CreationDate,2020-11-14T16:31:53+00:00*%
%TF.ProjectId,Displayboard4,44697370-6c61-4796-926f-617264342e6b,rev?*%
%TF.SameCoordinates,Original*%
%TF.FileFunction,Copper,L2,Bot*%
%TF.FilePolarity,Positive*%
%FSLAX46Y46*%
G04 Gerber Fmt 4.6, Leading zero omitted, Abs format (unit mm)*
G04 Created by KiCad (PCBNEW (5.1.6)-1) date 2020-11-14 16:31:53*
%MOMM*%
%LPD*%
G01*
G04 APERTURE LIST*
%TA.AperFunction,ViaPad*%
%ADD10C,0.800000*%
%TD*%
%TA.AperFunction,Conductor*%
%ADD11C,0.250000*%
%TD*%
%TA.AperFunction,Conductor*%
%ADD12C,0.254000*%
%TD*%
%TA.AperFunction,Conductor*%
%ADD13C,0.300000*%
%TD*%
G04 APERTURE END LIST*
D10*
%TO.N,GND*%
X110990000Y-65760000D03*
X112490000Y-65760000D03*
X113990000Y-65760000D03*
X115490000Y-65760000D03*
X116990000Y-65760000D03*
X110990000Y-67260000D03*
X112490000Y-67260000D03*
X113990000Y-67260000D03*
X115490000Y-67260000D03*
X116990000Y-67260000D03*
X110990000Y-68760000D03*
X112490000Y-68760000D03*
X113990000Y-68760000D03*
X115490000Y-68760000D03*
X116990000Y-68760000D03*
X118715000Y-78140000D03*
X114425000Y-75275000D03*
X131475000Y-67575000D03*
X132975000Y-67575000D03*
X134475000Y-67575000D03*
X135975000Y-67575000D03*
X137475000Y-67575000D03*
X131475000Y-69075000D03*
X132975000Y-69075000D03*
X134475000Y-69075000D03*
X135975000Y-69075000D03*
X137475000Y-69075000D03*
X131475000Y-70575000D03*
X132975000Y-70575000D03*
X134475000Y-70575000D03*
X135975000Y-70575000D03*
X137475000Y-70575000D03*
X131475000Y-72075000D03*
X132975000Y-72075000D03*
X134475000Y-72075000D03*
X135975000Y-72075000D03*
X137475000Y-72075000D03*
X131475000Y-73575000D03*
X132975000Y-73575000D03*
X134475000Y-73575000D03*
X135975000Y-73575000D03*
X137475000Y-73575000D03*
X132900000Y-51330000D03*
X131890000Y-51330000D03*
X106290000Y-56100000D03*
X106290000Y-57100000D03*
X106290000Y-58100000D03*
X120215000Y-78140000D03*
X121715000Y-78140000D03*
X123215000Y-78140000D03*
X124715000Y-78140000D03*
X126215000Y-78140000D03*
X118715000Y-79640000D03*
X120215000Y-79640000D03*
X121715000Y-79640000D03*
X123215000Y-79640000D03*
X124715000Y-79640000D03*
X126215000Y-79640000D03*
X118715000Y-81140000D03*
X120215000Y-81140000D03*
X121715000Y-81140000D03*
X123215000Y-81140000D03*
X124715000Y-81140000D03*
X126215000Y-81140000D03*
X108105000Y-78135000D03*
X106605000Y-76635000D03*
X108105000Y-79635000D03*
X106605000Y-79635000D03*
X106605000Y-78135000D03*
X108105000Y-81135000D03*
X106605000Y-81135000D03*
X108105000Y-76635000D03*
X106605000Y-75135000D03*
X108105000Y-75135000D03*
X126950000Y-71080000D03*
X128530000Y-71080000D03*
X105290000Y-58100000D03*
X105290000Y-57100000D03*
X105290000Y-56100000D03*
%TO.N,13V*%
X109050000Y-61110000D03*
X136900000Y-51330000D03*
X106430010Y-61100000D03*
X137860000Y-51330000D03*
%TO.N,+3V3*%
X109050000Y-58100000D03*
X134900000Y-54070000D03*
X133900000Y-54070000D03*
X109050000Y-59100000D03*
%TO.N,RST*%
X125490000Y-57390000D03*
X125490153Y-69710153D03*
%TO.N,Display5_CS*%
X124254990Y-58115010D03*
X124250000Y-68810000D03*
%TD*%
D11*
%TO.N,RST*%
X125490153Y-57390153D02*
X125490000Y-57390000D01*
X125490153Y-69710153D02*
X125490153Y-57390153D01*
%TO.N,Display5_CS*%
X124254990Y-68805010D02*
X124250000Y-68810000D01*
X124254990Y-58115010D02*
X124254990Y-68805010D01*
%TD*%
D12*
%TO.N,GND*%
G36*
X133475362Y-50515328D02*
G01*
X133555978Y-50666150D01*
X133605624Y-50829811D01*
X133623000Y-51006234D01*
X133623000Y-51493766D01*
X133605624Y-51670189D01*
X133555978Y-51833850D01*
X133475362Y-51984672D01*
X133401452Y-52074732D01*
X108270742Y-52092300D01*
X108228861Y-52094388D01*
X108033657Y-52113765D01*
X107951519Y-52130174D01*
X107763853Y-52187285D01*
X107686498Y-52219414D01*
X107513592Y-52312062D01*
X107443997Y-52358673D01*
X107292504Y-52483293D01*
X107233348Y-52542594D01*
X107109098Y-52694390D01*
X107062656Y-52764098D01*
X106970430Y-52937229D01*
X106938491Y-53014662D01*
X106881837Y-53202467D01*
X106865628Y-53284647D01*
X106846728Y-53479898D01*
X106844742Y-53521782D01*
X106852406Y-57928400D01*
X106838218Y-58067592D01*
X106802511Y-58179758D01*
X106733618Y-58301538D01*
X106292014Y-58922543D01*
X106261516Y-58972315D01*
X106189563Y-59110075D01*
X106150226Y-59219700D01*
X106118174Y-59371778D01*
X106109922Y-59487958D01*
X106116687Y-59590460D01*
X105998983Y-59752083D01*
X105991718Y-59763244D01*
X105886834Y-59944517D01*
X105875998Y-59968807D01*
X105824891Y-60125796D01*
X105722156Y-60251872D01*
X105665013Y-60338059D01*
X105573150Y-60511452D01*
X105533937Y-60607138D01*
X105477702Y-60795131D01*
X105457929Y-60896635D01*
X105439488Y-61091990D01*
X105437161Y-61143703D01*
X105438873Y-61556335D01*
X105441611Y-61607844D01*
X105461532Y-61802345D01*
X105482000Y-61903328D01*
X105539386Y-62090235D01*
X105579113Y-62185308D01*
X105671771Y-62357476D01*
X105729239Y-62443001D01*
X105853627Y-62593848D01*
X105926635Y-62666554D01*
X106077997Y-62790315D01*
X106163760Y-62847427D01*
X106336311Y-62939370D01*
X106431548Y-62978703D01*
X106618692Y-63035313D01*
X106719758Y-63055362D01*
X106914339Y-63074476D01*
X106965859Y-63077000D01*
X111460000Y-63077000D01*
X111511656Y-63074462D01*
X111706746Y-63055247D01*
X111808068Y-63035093D01*
X111995661Y-62978188D01*
X112091109Y-62938653D01*
X112263996Y-62846243D01*
X112349895Y-62788847D01*
X112501432Y-62664484D01*
X112574484Y-62591432D01*
X112698847Y-62439895D01*
X112756243Y-62353996D01*
X112848653Y-62181109D01*
X112888188Y-62085661D01*
X112945093Y-61898068D01*
X112965247Y-61796746D01*
X112984462Y-61601656D01*
X112987000Y-61550000D01*
X112987000Y-57615888D01*
X112998589Y-57498220D01*
X113025360Y-57409969D01*
X113068836Y-57328631D01*
X113127342Y-57257342D01*
X113198631Y-57198836D01*
X113279969Y-57155360D01*
X113368220Y-57128589D01*
X113485888Y-57117000D01*
X123340566Y-57117000D01*
X123333002Y-58569339D01*
X123334482Y-58589343D01*
X123340667Y-58613458D01*
X123351438Y-58635904D01*
X123366381Y-58655817D01*
X123384922Y-58672432D01*
X123406348Y-58685111D01*
X123429836Y-58693366D01*
X123454483Y-58696880D01*
X123676981Y-58706554D01*
X123702990Y-58732563D01*
X123702991Y-68187456D01*
X123607628Y-68282819D01*
X123517123Y-68418269D01*
X123454782Y-68568773D01*
X123423000Y-68728548D01*
X123423000Y-68891452D01*
X123454782Y-69051227D01*
X123517123Y-69201731D01*
X123607628Y-69337181D01*
X123722819Y-69452372D01*
X123858269Y-69542877D01*
X124008773Y-69605218D01*
X124168548Y-69637000D01*
X124331452Y-69637000D01*
X124491227Y-69605218D01*
X124641731Y-69542877D01*
X124686125Y-69513214D01*
X124663153Y-69628701D01*
X124663153Y-69791605D01*
X124694935Y-69951380D01*
X124757276Y-70101884D01*
X124847781Y-70237334D01*
X124962972Y-70352525D01*
X125098422Y-70443030D01*
X125248926Y-70505371D01*
X125408701Y-70537153D01*
X125571605Y-70537153D01*
X125731380Y-70505371D01*
X125881884Y-70443030D01*
X126017334Y-70352525D01*
X126132525Y-70237334D01*
X126223030Y-70101884D01*
X126285371Y-69951380D01*
X126317153Y-69791605D01*
X126317153Y-69628701D01*
X126285371Y-69468926D01*
X126223030Y-69318422D01*
X126132525Y-69182972D01*
X126042153Y-69092600D01*
X126042153Y-58007400D01*
X126132372Y-57917181D01*
X126222877Y-57781731D01*
X126285218Y-57631227D01*
X126317000Y-57471452D01*
X126317000Y-57308548D01*
X126285218Y-57148773D01*
X126272057Y-57117000D01*
X139793262Y-57117000D01*
X139843424Y-57114607D01*
X140032926Y-57096487D01*
X140131430Y-57077476D01*
X140314064Y-57023774D01*
X140407181Y-56986441D01*
X140532249Y-56921863D01*
X141868861Y-66278149D01*
X141828951Y-66306142D01*
X141701028Y-66355319D01*
X141557221Y-66373000D01*
X141193162Y-66373000D01*
X141180474Y-66373635D01*
X140981651Y-66393599D01*
X140956779Y-66398645D01*
X140765896Y-66457742D01*
X140742526Y-66467632D01*
X140605749Y-66542423D01*
X140467843Y-66569854D01*
X140291802Y-66642773D01*
X140133370Y-66748634D01*
X139998634Y-66883370D01*
X139892773Y-67041802D01*
X139819854Y-67217843D01*
X139782680Y-67404727D01*
X139782680Y-67595273D01*
X139819854Y-67782157D01*
X139892773Y-67958198D01*
X139998634Y-68116630D01*
X140133370Y-68251366D01*
X140291802Y-68357227D01*
X140467843Y-68430146D01*
X140585681Y-68453586D01*
X140723164Y-68529929D01*
X140746785Y-68540070D01*
X140939906Y-68600686D01*
X140965086Y-68605863D01*
X141166458Y-68626348D01*
X141179311Y-68627000D01*
X141547219Y-68627000D01*
X141693113Y-68644939D01*
X141822994Y-68694873D01*
X141868186Y-68726576D01*
X139607983Y-84548000D01*
X132187225Y-84548000D01*
X130335323Y-82696100D01*
X130321159Y-82678841D01*
X130252333Y-82622357D01*
X130173810Y-82580386D01*
X130088607Y-82554540D01*
X130022205Y-82548000D01*
X130000000Y-82545813D01*
X129977795Y-82548000D01*
X115022204Y-82548000D01*
X114999999Y-82545813D01*
X114911392Y-82554540D01*
X114826190Y-82580386D01*
X114747667Y-82622357D01*
X114678841Y-82678841D01*
X114664686Y-82696089D01*
X112812777Y-84548000D01*
X105392017Y-84548000D01*
X103133157Y-68735981D01*
X103188853Y-68696910D01*
X103322686Y-68645456D01*
X103472782Y-68627000D01*
X103847928Y-68627000D01*
X103861120Y-68626313D01*
X104067741Y-68604734D01*
X104093555Y-68599283D01*
X104291260Y-68535477D01*
X104315391Y-68524809D01*
X104453194Y-68445853D01*
X104532157Y-68430146D01*
X104708198Y-68357227D01*
X104866630Y-68251366D01*
X105001366Y-68116630D01*
X105107227Y-67958198D01*
X105180146Y-67782157D01*
X105217320Y-67595273D01*
X105217320Y-67404727D01*
X105180146Y-67217843D01*
X105107227Y-67041802D01*
X105001366Y-66883370D01*
X104866630Y-66748634D01*
X104708198Y-66642773D01*
X104532157Y-66569854D01*
X104431507Y-66549833D01*
X104315744Y-66483985D01*
X104291731Y-66473441D01*
X104095092Y-66410386D01*
X104069426Y-66405000D01*
X103864029Y-66383679D01*
X103850916Y-66383000D01*
X103471802Y-66383000D01*
X103321458Y-66364520D01*
X103187379Y-66312989D01*
X103131735Y-66273971D01*
X105392017Y-50452000D01*
X133423390Y-50452000D01*
X133475362Y-50515328D01*
G37*
X133475362Y-50515328D02*
X133555978Y-50666150D01*
X133605624Y-50829811D01*
X133623000Y-51006234D01*
X133623000Y-51493766D01*
X133605624Y-51670189D01*
X133555978Y-51833850D01*
X133475362Y-51984672D01*
X133401452Y-52074732D01*
X108270742Y-52092300D01*
X108228861Y-52094388D01*
X108033657Y-52113765D01*
X107951519Y-52130174D01*
X107763853Y-52187285D01*
X107686498Y-52219414D01*
X107513592Y-52312062D01*
X107443997Y-52358673D01*
X107292504Y-52483293D01*
X107233348Y-52542594D01*
X107109098Y-52694390D01*
X107062656Y-52764098D01*
X106970430Y-52937229D01*
X106938491Y-53014662D01*
X106881837Y-53202467D01*
X106865628Y-53284647D01*
X106846728Y-53479898D01*
X106844742Y-53521782D01*
X106852406Y-57928400D01*
X106838218Y-58067592D01*
X106802511Y-58179758D01*
X106733618Y-58301538D01*
X106292014Y-58922543D01*
X106261516Y-58972315D01*
X106189563Y-59110075D01*
X106150226Y-59219700D01*
X106118174Y-59371778D01*
X106109922Y-59487958D01*
X106116687Y-59590460D01*
X105998983Y-59752083D01*
X105991718Y-59763244D01*
X105886834Y-59944517D01*
X105875998Y-59968807D01*
X105824891Y-60125796D01*
X105722156Y-60251872D01*
X105665013Y-60338059D01*
X105573150Y-60511452D01*
X105533937Y-60607138D01*
X105477702Y-60795131D01*
X105457929Y-60896635D01*
X105439488Y-61091990D01*
X105437161Y-61143703D01*
X105438873Y-61556335D01*
X105441611Y-61607844D01*
X105461532Y-61802345D01*
X105482000Y-61903328D01*
X105539386Y-62090235D01*
X105579113Y-62185308D01*
X105671771Y-62357476D01*
X105729239Y-62443001D01*
X105853627Y-62593848D01*
X105926635Y-62666554D01*
X106077997Y-62790315D01*
X106163760Y-62847427D01*
X106336311Y-62939370D01*
X106431548Y-62978703D01*
X106618692Y-63035313D01*
X106719758Y-63055362D01*
X106914339Y-63074476D01*
X106965859Y-63077000D01*
X111460000Y-63077000D01*
X111511656Y-63074462D01*
X111706746Y-63055247D01*
X111808068Y-63035093D01*
X111995661Y-62978188D01*
X112091109Y-62938653D01*
X112263996Y-62846243D01*
X112349895Y-62788847D01*
X112501432Y-62664484D01*
X112574484Y-62591432D01*
X112698847Y-62439895D01*
X112756243Y-62353996D01*
X112848653Y-62181109D01*
X112888188Y-62085661D01*
X112945093Y-61898068D01*
X112965247Y-61796746D01*
X112984462Y-61601656D01*
X112987000Y-61550000D01*
X112987000Y-57615888D01*
X112998589Y-57498220D01*
X113025360Y-57409969D01*
X113068836Y-57328631D01*
X113127342Y-57257342D01*
X113198631Y-57198836D01*
X113279969Y-57155360D01*
X113368220Y-57128589D01*
X113485888Y-57117000D01*
X123340566Y-57117000D01*
X123333002Y-58569339D01*
X123334482Y-58589343D01*
X123340667Y-58613458D01*
X123351438Y-58635904D01*
X123366381Y-58655817D01*
X123384922Y-58672432D01*
X123406348Y-58685111D01*
X123429836Y-58693366D01*
X123454483Y-58696880D01*
X123676981Y-58706554D01*
X123702990Y-58732563D01*
X123702991Y-68187456D01*
X123607628Y-68282819D01*
X123517123Y-68418269D01*
X123454782Y-68568773D01*
X123423000Y-68728548D01*
X123423000Y-68891452D01*
X123454782Y-69051227D01*
X123517123Y-69201731D01*
X123607628Y-69337181D01*
X123722819Y-69452372D01*
X123858269Y-69542877D01*
X124008773Y-69605218D01*
X124168548Y-69637000D01*
X124331452Y-69637000D01*
X124491227Y-69605218D01*
X124641731Y-69542877D01*
X124686125Y-69513214D01*
X124663153Y-69628701D01*
X124663153Y-69791605D01*
X124694935Y-69951380D01*
X124757276Y-70101884D01*
X124847781Y-70237334D01*
X124962972Y-70352525D01*
X125098422Y-70443030D01*
X125248926Y-70505371D01*
X125408701Y-70537153D01*
X125571605Y-70537153D01*
X125731380Y-70505371D01*
X125881884Y-70443030D01*
X126017334Y-70352525D01*
X126132525Y-70237334D01*
X126223030Y-70101884D01*
X126285371Y-69951380D01*
X126317153Y-69791605D01*
X126317153Y-69628701D01*
X126285371Y-69468926D01*
X126223030Y-69318422D01*
X126132525Y-69182972D01*
X126042153Y-69092600D01*
X126042153Y-58007400D01*
X126132372Y-57917181D01*
X126222877Y-57781731D01*
X126285218Y-57631227D01*
X126317000Y-57471452D01*
X126317000Y-57308548D01*
X126285218Y-57148773D01*
X126272057Y-57117000D01*
X139793262Y-57117000D01*
X139843424Y-57114607D01*
X140032926Y-57096487D01*
X140131430Y-57077476D01*
X140314064Y-57023774D01*
X140407181Y-56986441D01*
X140532249Y-56921863D01*
X141868861Y-66278149D01*
X141828951Y-66306142D01*
X141701028Y-66355319D01*
X141557221Y-66373000D01*
X141193162Y-66373000D01*
X141180474Y-66373635D01*
X140981651Y-66393599D01*
X140956779Y-66398645D01*
X140765896Y-66457742D01*
X140742526Y-66467632D01*
X140605749Y-66542423D01*
X140467843Y-66569854D01*
X140291802Y-66642773D01*
X140133370Y-66748634D01*
X139998634Y-66883370D01*
X139892773Y-67041802D01*
X139819854Y-67217843D01*
X139782680Y-67404727D01*
X139782680Y-67595273D01*
X139819854Y-67782157D01*
X139892773Y-67958198D01*
X139998634Y-68116630D01*
X140133370Y-68251366D01*
X140291802Y-68357227D01*
X140467843Y-68430146D01*
X140585681Y-68453586D01*
X140723164Y-68529929D01*
X140746785Y-68540070D01*
X140939906Y-68600686D01*
X140965086Y-68605863D01*
X141166458Y-68626348D01*
X141179311Y-68627000D01*
X141547219Y-68627000D01*
X141693113Y-68644939D01*
X141822994Y-68694873D01*
X141868186Y-68726576D01*
X139607983Y-84548000D01*
X132187225Y-84548000D01*
X130335323Y-82696100D01*
X130321159Y-82678841D01*
X130252333Y-82622357D01*
X130173810Y-82580386D01*
X130088607Y-82554540D01*
X130022205Y-82548000D01*
X130000000Y-82545813D01*
X129977795Y-82548000D01*
X115022204Y-82548000D01*
X114999999Y-82545813D01*
X114911392Y-82554540D01*
X114826190Y-82580386D01*
X114747667Y-82622357D01*
X114678841Y-82678841D01*
X114664686Y-82696089D01*
X112812777Y-84548000D01*
X105392017Y-84548000D01*
X103133157Y-68735981D01*
X103188853Y-68696910D01*
X103322686Y-68645456D01*
X103472782Y-68627000D01*
X103847928Y-68627000D01*
X103861120Y-68626313D01*
X104067741Y-68604734D01*
X104093555Y-68599283D01*
X104291260Y-68535477D01*
X104315391Y-68524809D01*
X104453194Y-68445853D01*
X104532157Y-68430146D01*
X104708198Y-68357227D01*
X104866630Y-68251366D01*
X105001366Y-68116630D01*
X105107227Y-67958198D01*
X105180146Y-67782157D01*
X105217320Y-67595273D01*
X105217320Y-67404727D01*
X105180146Y-67217843D01*
X105107227Y-67041802D01*
X105001366Y-66883370D01*
X104866630Y-66748634D01*
X104708198Y-66642773D01*
X104532157Y-66569854D01*
X104431507Y-66549833D01*
X104315744Y-66483985D01*
X104291731Y-66473441D01*
X104095092Y-66410386D01*
X104069426Y-66405000D01*
X103864029Y-66383679D01*
X103850916Y-66383000D01*
X103471802Y-66383000D01*
X103321458Y-66364520D01*
X103187379Y-66312989D01*
X103131735Y-66273971D01*
X105392017Y-50452000D01*
X133423390Y-50452000D01*
X133475362Y-50515328D01*
%TO.N,+3V3*%
G36*
X135047539Y-52645027D02*
G01*
X135211520Y-52694749D01*
X135362617Y-52775563D01*
X135423000Y-52825184D01*
X135423000Y-53643724D01*
X135411405Y-53761418D01*
X135384619Y-53849697D01*
X135341129Y-53931038D01*
X135282593Y-54002340D01*
X135211275Y-54060843D01*
X135129907Y-54104308D01*
X135041628Y-54131057D01*
X134923920Y-54142608D01*
X110770583Y-54133382D01*
X110718914Y-54135901D01*
X110523769Y-54155051D01*
X110422414Y-54175177D01*
X110234758Y-54232038D01*
X110139277Y-54271555D01*
X109966324Y-54363942D01*
X109880391Y-54421331D01*
X109728791Y-54545691D01*
X109655706Y-54618748D01*
X109531288Y-54770301D01*
X109473868Y-54856211D01*
X109381415Y-55029128D01*
X109341860Y-55124594D01*
X109284927Y-55312229D01*
X109264763Y-55413578D01*
X109245539Y-55608715D01*
X109243000Y-55660382D01*
X109243000Y-59106772D01*
X109231448Y-59224254D01*
X109204766Y-59312371D01*
X109161428Y-59393611D01*
X109103103Y-59464846D01*
X109032014Y-59523363D01*
X108950888Y-59566915D01*
X108862844Y-59593828D01*
X108745389Y-59605688D01*
X106960139Y-59610373D01*
X106908439Y-59613051D01*
X106713213Y-59632816D01*
X106688968Y-59637710D01*
X106671803Y-59589111D01*
X106663870Y-59468922D01*
X106688711Y-59351059D01*
X106748541Y-59236509D01*
X107197899Y-58604600D01*
X107204938Y-58593533D01*
X107306498Y-58414009D01*
X107316976Y-58390001D01*
X107379544Y-58193460D01*
X107384873Y-58167813D01*
X107405788Y-57962615D01*
X107406443Y-57949516D01*
X107398752Y-53527057D01*
X107415844Y-53350484D01*
X107465267Y-53186647D01*
X107545725Y-53035608D01*
X107654121Y-52903181D01*
X107786276Y-52794469D01*
X107937122Y-52713641D01*
X108100834Y-52663820D01*
X108277373Y-52646296D01*
X134870750Y-52627705D01*
X135047539Y-52645027D01*
G37*
X135047539Y-52645027D02*
X135211520Y-52694749D01*
X135362617Y-52775563D01*
X135423000Y-52825184D01*
X135423000Y-53643724D01*
X135411405Y-53761418D01*
X135384619Y-53849697D01*
X135341129Y-53931038D01*
X135282593Y-54002340D01*
X135211275Y-54060843D01*
X135129907Y-54104308D01*
X135041628Y-54131057D01*
X134923920Y-54142608D01*
X110770583Y-54133382D01*
X110718914Y-54135901D01*
X110523769Y-54155051D01*
X110422414Y-54175177D01*
X110234758Y-54232038D01*
X110139277Y-54271555D01*
X109966324Y-54363942D01*
X109880391Y-54421331D01*
X109728791Y-54545691D01*
X109655706Y-54618748D01*
X109531288Y-54770301D01*
X109473868Y-54856211D01*
X109381415Y-55029128D01*
X109341860Y-55124594D01*
X109284927Y-55312229D01*
X109264763Y-55413578D01*
X109245539Y-55608715D01*
X109243000Y-55660382D01*
X109243000Y-59106772D01*
X109231448Y-59224254D01*
X109204766Y-59312371D01*
X109161428Y-59393611D01*
X109103103Y-59464846D01*
X109032014Y-59523363D01*
X108950888Y-59566915D01*
X108862844Y-59593828D01*
X108745389Y-59605688D01*
X106960139Y-59610373D01*
X106908439Y-59613051D01*
X106713213Y-59632816D01*
X106688968Y-59637710D01*
X106671803Y-59589111D01*
X106663870Y-59468922D01*
X106688711Y-59351059D01*
X106748541Y-59236509D01*
X107197899Y-58604600D01*
X107204938Y-58593533D01*
X107306498Y-58414009D01*
X107316976Y-58390001D01*
X107379544Y-58193460D01*
X107384873Y-58167813D01*
X107405788Y-57962615D01*
X107406443Y-57949516D01*
X107398752Y-53527057D01*
X107415844Y-53350484D01*
X107465267Y-53186647D01*
X107545725Y-53035608D01*
X107654121Y-52903181D01*
X107786276Y-52794469D01*
X107937122Y-52713641D01*
X108100834Y-52663820D01*
X108277373Y-52646296D01*
X134870750Y-52627705D01*
X135047539Y-52645027D01*
D13*
%TO.N,13V*%
G36*
X140312999Y-56256855D02*
G01*
X140252986Y-56304137D01*
X140109322Y-56378316D01*
X139954208Y-56423926D01*
X139786106Y-56440000D01*
X113460000Y-56440000D01*
X113445297Y-56440722D01*
X113250207Y-56459937D01*
X113221368Y-56465674D01*
X113033775Y-56522579D01*
X113006608Y-56533832D01*
X112833721Y-56626242D01*
X112809271Y-56642578D01*
X112657734Y-56766941D01*
X112636941Y-56787734D01*
X112512578Y-56939271D01*
X112496242Y-56963721D01*
X112403832Y-57136608D01*
X112392579Y-57163775D01*
X112335674Y-57351368D01*
X112329937Y-57380207D01*
X112310722Y-57575297D01*
X112310000Y-57590000D01*
X112310000Y-61542627D01*
X112292955Y-61715688D01*
X112244627Y-61875004D01*
X112166148Y-62021828D01*
X112060528Y-62150528D01*
X111931828Y-62256148D01*
X111785004Y-62334627D01*
X111625688Y-62382955D01*
X111452627Y-62400000D01*
X106973204Y-62400000D01*
X106800609Y-62383046D01*
X106641669Y-62334967D01*
X106495125Y-62256882D01*
X106366576Y-62151774D01*
X106260936Y-62023663D01*
X106182245Y-61877446D01*
X106133506Y-61718705D01*
X106115837Y-61546184D01*
X106114186Y-61148267D01*
X106130543Y-60974982D01*
X106178302Y-60815325D01*
X106256320Y-60668064D01*
X106361587Y-60538881D01*
X106490064Y-60432733D01*
X106636784Y-60353724D01*
X106796119Y-60304883D01*
X106969296Y-60287351D01*
X108773019Y-60282617D01*
X108787695Y-60281859D01*
X108982412Y-60262197D01*
X109011191Y-60256404D01*
X109198350Y-60199194D01*
X109225450Y-60187906D01*
X109397882Y-60095338D01*
X109422263Y-60078989D01*
X109573364Y-59954610D01*
X109594095Y-59933825D01*
X109718077Y-59782399D01*
X109732027Y-59761476D01*
X109787913Y-59705590D01*
X109891879Y-59549994D01*
X109963492Y-59377105D01*
X110000000Y-59193567D01*
X110000000Y-59006433D01*
X109963492Y-58822895D01*
X109920000Y-58717896D01*
X109920000Y-58482104D01*
X109963492Y-58377105D01*
X110000000Y-58193567D01*
X110000000Y-58006433D01*
X109963492Y-57822895D01*
X109920000Y-57717896D01*
X109920000Y-55667749D01*
X109937052Y-55494659D01*
X109985404Y-55335306D01*
X110063924Y-55188448D01*
X110169587Y-55059739D01*
X110298335Y-54954125D01*
X110445221Y-54875663D01*
X110604595Y-54827372D01*
X110777696Y-54810385D01*
X133310991Y-54818992D01*
X133450006Y-54911879D01*
X133622895Y-54983492D01*
X133806433Y-55020000D01*
X133993567Y-55020000D01*
X134177105Y-54983492D01*
X134349994Y-54911879D01*
X134400000Y-54878466D01*
X134450006Y-54911879D01*
X134622895Y-54983492D01*
X134806433Y-55020000D01*
X134993567Y-55020000D01*
X135177105Y-54983492D01*
X135349994Y-54911879D01*
X135505590Y-54807913D01*
X135637913Y-54675590D01*
X135741879Y-54519994D01*
X135753853Y-54491085D01*
X135772908Y-54472038D01*
X135897326Y-54320485D01*
X135913670Y-54296033D01*
X136006123Y-54123116D01*
X136017381Y-54095943D01*
X136074314Y-53908308D01*
X136080053Y-53879461D01*
X136099277Y-53684324D01*
X136100000Y-53669618D01*
X136100000Y-51019855D01*
X136117097Y-50846538D01*
X136165577Y-50686988D01*
X136225548Y-50575000D01*
X139501306Y-50575000D01*
X140312999Y-56256855D01*
G37*
X140312999Y-56256855D02*
X140252986Y-56304137D01*
X140109322Y-56378316D01*
X139954208Y-56423926D01*
X139786106Y-56440000D01*
X113460000Y-56440000D01*
X113445297Y-56440722D01*
X113250207Y-56459937D01*
X113221368Y-56465674D01*
X113033775Y-56522579D01*
X113006608Y-56533832D01*
X112833721Y-56626242D01*
X112809271Y-56642578D01*
X112657734Y-56766941D01*
X112636941Y-56787734D01*
X112512578Y-56939271D01*
X112496242Y-56963721D01*
X112403832Y-57136608D01*
X112392579Y-57163775D01*
X112335674Y-57351368D01*
X112329937Y-57380207D01*
X112310722Y-57575297D01*
X112310000Y-57590000D01*
X112310000Y-61542627D01*
X112292955Y-61715688D01*
X112244627Y-61875004D01*
X112166148Y-62021828D01*
X112060528Y-62150528D01*
X111931828Y-62256148D01*
X111785004Y-62334627D01*
X111625688Y-62382955D01*
X111452627Y-62400000D01*
X106973204Y-62400000D01*
X106800609Y-62383046D01*
X106641669Y-62334967D01*
X106495125Y-62256882D01*
X106366576Y-62151774D01*
X106260936Y-62023663D01*
X106182245Y-61877446D01*
X106133506Y-61718705D01*
X106115837Y-61546184D01*
X106114186Y-61148267D01*
X106130543Y-60974982D01*
X106178302Y-60815325D01*
X106256320Y-60668064D01*
X106361587Y-60538881D01*
X106490064Y-60432733D01*
X106636784Y-60353724D01*
X106796119Y-60304883D01*
X106969296Y-60287351D01*
X108773019Y-60282617D01*
X108787695Y-60281859D01*
X108982412Y-60262197D01*
X109011191Y-60256404D01*
X109198350Y-60199194D01*
X109225450Y-60187906D01*
X109397882Y-60095338D01*
X109422263Y-60078989D01*
X109573364Y-59954610D01*
X109594095Y-59933825D01*
X109718077Y-59782399D01*
X109732027Y-59761476D01*
X109787913Y-59705590D01*
X109891879Y-59549994D01*
X109963492Y-59377105D01*
X110000000Y-59193567D01*
X110000000Y-59006433D01*
X109963492Y-58822895D01*
X109920000Y-58717896D01*
X109920000Y-58482104D01*
X109963492Y-58377105D01*
X110000000Y-58193567D01*
X110000000Y-58006433D01*
X109963492Y-57822895D01*
X109920000Y-57717896D01*
X109920000Y-55667749D01*
X109937052Y-55494659D01*
X109985404Y-55335306D01*
X110063924Y-55188448D01*
X110169587Y-55059739D01*
X110298335Y-54954125D01*
X110445221Y-54875663D01*
X110604595Y-54827372D01*
X110777696Y-54810385D01*
X133310991Y-54818992D01*
X133450006Y-54911879D01*
X133622895Y-54983492D01*
X133806433Y-55020000D01*
X133993567Y-55020000D01*
X134177105Y-54983492D01*
X134349994Y-54911879D01*
X134400000Y-54878466D01*
X134450006Y-54911879D01*
X134622895Y-54983492D01*
X134806433Y-55020000D01*
X134993567Y-55020000D01*
X135177105Y-54983492D01*
X135349994Y-54911879D01*
X135505590Y-54807913D01*
X135637913Y-54675590D01*
X135741879Y-54519994D01*
X135753853Y-54491085D01*
X135772908Y-54472038D01*
X135897326Y-54320485D01*
X135913670Y-54296033D01*
X136006123Y-54123116D01*
X136017381Y-54095943D01*
X136074314Y-53908308D01*
X136080053Y-53879461D01*
X136099277Y-53684324D01*
X136100000Y-53669618D01*
X136100000Y-51019855D01*
X136117097Y-50846538D01*
X136165577Y-50686988D01*
X136225548Y-50575000D01*
X139501306Y-50575000D01*
X140312999Y-56256855D01*
%TD*%
M02*
