%TF.GenerationSoftware,KiCad,Pcbnew,(5.1.6)-1*%
%TF.CreationDate,2020-11-14T16:31:53+00:00*%
%TF.ProjectId,Displayboard4,44697370-6c61-4796-926f-617264342e6b,rev?*%
%TF.SameCoordinates,Original*%
%TF.FileFunction,Soldermask,Top*%
%TF.FilePolarity,Negative*%
%FSLAX46Y46*%
G04 Gerber Fmt 4.6, Leading zero omitted, Abs format (unit mm)*
G04 Created by KiCad (PCBNEW (5.1.6)-1) date 2020-11-14 16:31:53*
%MOMM*%
%LPD*%
G01*
G04 APERTURE LIST*
%ADD10R,0.402400X1.252400*%
%ADD11R,1.852400X1.652400*%
%ADD12R,1.900000X0.900000*%
%ADD13R,1.600000X0.700000*%
%ADD14R,0.700000X1.600000*%
%ADD15R,0.900000X1.900000*%
%ADD16R,1.100000X1.100000*%
G04 APERTURE END LIST*
D10*
%TO.C,U1*%
X129750000Y-75870000D03*
X129250000Y-75870000D03*
X128750000Y-75870000D03*
X128250000Y-75870000D03*
X127750000Y-75870000D03*
X127250000Y-75870000D03*
X126750000Y-75870000D03*
X126250000Y-75870000D03*
X125750000Y-75870000D03*
X125250000Y-75870000D03*
X124750000Y-75870000D03*
X124250000Y-75870000D03*
X123750000Y-75870000D03*
X123250000Y-75870000D03*
X122750000Y-75870000D03*
X122250000Y-75870000D03*
X121750000Y-75870000D03*
X121250000Y-75870000D03*
X120750000Y-75870000D03*
X120250000Y-75870000D03*
X119750000Y-75870000D03*
X119250000Y-75870000D03*
X118750000Y-75870000D03*
X118250000Y-75870000D03*
X117750000Y-75870000D03*
X117250000Y-75870000D03*
X116750000Y-75870000D03*
X115750000Y-75870000D03*
X115250000Y-75870000D03*
X116250000Y-75870000D03*
D11*
X131400000Y-79770000D03*
X113600000Y-79770000D03*
%TD*%
%TO.C,C2*%
G36*
G01*
X116556482Y-71175000D02*
X115643518Y-71175000D01*
G75*
G02*
X115375000Y-70906482I0J268518D01*
G01*
X115375000Y-69768518D01*
G75*
G02*
X115643518Y-69500000I268518J0D01*
G01*
X116556482Y-69500000D01*
G75*
G02*
X116825000Y-69768518I0J-268518D01*
G01*
X116825000Y-70906482D01*
G75*
G02*
X116556482Y-71175000I-268518J0D01*
G01*
G37*
G36*
G01*
X116556482Y-74050000D02*
X115643518Y-74050000D01*
G75*
G02*
X115375000Y-73781482I0J268518D01*
G01*
X115375000Y-72643518D01*
G75*
G02*
X115643518Y-72375000I268518J0D01*
G01*
X116556482Y-72375000D01*
G75*
G02*
X116825000Y-72643518I0J-268518D01*
G01*
X116825000Y-73781482D01*
G75*
G02*
X116556482Y-74050000I-268518J0D01*
G01*
G37*
%TD*%
D12*
%TO.C,J1*%
X107825000Y-63100000D03*
X110525000Y-63100000D03*
X110525000Y-51600000D03*
X107825000Y-51600000D03*
D13*
X107675000Y-52600000D03*
X107675000Y-53600000D03*
X107675000Y-54600000D03*
X107675000Y-55600000D03*
X107675000Y-56600000D03*
X107675000Y-57600000D03*
X107675000Y-58600000D03*
X107675000Y-59600000D03*
X107675000Y-60600000D03*
X107675000Y-61600000D03*
X110675000Y-62100000D03*
X110675000Y-61100000D03*
X110675000Y-60100000D03*
X110675000Y-59100000D03*
X110675000Y-58100000D03*
X110675000Y-57100000D03*
X110675000Y-56100000D03*
X110675000Y-55100000D03*
X110675000Y-54100000D03*
X110675000Y-53100000D03*
%TD*%
%TO.C,R2*%
G36*
G01*
X119450000Y-73862500D02*
X119450000Y-73337500D01*
G75*
G02*
X119712500Y-73075000I262500J0D01*
G01*
X120337500Y-73075000D01*
G75*
G02*
X120600000Y-73337500I0J-262500D01*
G01*
X120600000Y-73862500D01*
G75*
G02*
X120337500Y-74125000I-262500J0D01*
G01*
X119712500Y-74125000D01*
G75*
G02*
X119450000Y-73862500I0J262500D01*
G01*
G37*
G36*
G01*
X117700000Y-73862500D02*
X117700000Y-73337500D01*
G75*
G02*
X117962500Y-73075000I262500J0D01*
G01*
X118587500Y-73075000D01*
G75*
G02*
X118850000Y-73337500I0J-262500D01*
G01*
X118850000Y-73862500D01*
G75*
G02*
X118587500Y-74125000I-262500J0D01*
G01*
X117962500Y-74125000D01*
G75*
G02*
X117700000Y-73862500I0J262500D01*
G01*
G37*
%TD*%
%TO.C,R1*%
G36*
G01*
X126427500Y-72715000D02*
X125902500Y-72715000D01*
G75*
G02*
X125640000Y-72452500I0J262500D01*
G01*
X125640000Y-71827500D01*
G75*
G02*
X125902500Y-71565000I262500J0D01*
G01*
X126427500Y-71565000D01*
G75*
G02*
X126690000Y-71827500I0J-262500D01*
G01*
X126690000Y-72452500D01*
G75*
G02*
X126427500Y-72715000I-262500J0D01*
G01*
G37*
G36*
G01*
X126427500Y-74465000D02*
X125902500Y-74465000D01*
G75*
G02*
X125640000Y-74202500I0J262500D01*
G01*
X125640000Y-73577500D01*
G75*
G02*
X125902500Y-73315000I262500J0D01*
G01*
X126427500Y-73315000D01*
G75*
G02*
X126690000Y-73577500I0J-262500D01*
G01*
X126690000Y-74202500D01*
G75*
G02*
X126427500Y-74465000I-262500J0D01*
G01*
G37*
%TD*%
D14*
%TO.C,J2*%
X136900000Y-55700000D03*
X135900000Y-55700000D03*
X134900000Y-55700000D03*
X133900000Y-55700000D03*
X132900000Y-55700000D03*
X131900000Y-55700000D03*
X130900000Y-55700000D03*
X129900000Y-55700000D03*
X128900000Y-55700000D03*
X127900000Y-55700000D03*
X128400000Y-52700000D03*
X129400000Y-52700000D03*
X130400000Y-52700000D03*
X131400000Y-52700000D03*
X132400000Y-52700000D03*
X133400000Y-52700000D03*
X134400000Y-52700000D03*
X135400000Y-52700000D03*
X136400000Y-52700000D03*
X137400000Y-52700000D03*
D15*
X138400000Y-52850000D03*
X138400000Y-55550000D03*
X126900000Y-55550000D03*
X126900000Y-52850000D03*
%TD*%
D16*
%TO.C,D2*%
X120275000Y-72000000D03*
X120275000Y-69500000D03*
%TD*%
%TO.C,D1*%
X118275000Y-72000000D03*
X118275000Y-69500000D03*
%TD*%
%TO.C,C5*%
G36*
G01*
X129577500Y-72715000D02*
X129052500Y-72715000D01*
G75*
G02*
X128790000Y-72452500I0J262500D01*
G01*
X128790000Y-71827500D01*
G75*
G02*
X129052500Y-71565000I262500J0D01*
G01*
X129577500Y-71565000D01*
G75*
G02*
X129840000Y-71827500I0J-262500D01*
G01*
X129840000Y-72452500D01*
G75*
G02*
X129577500Y-72715000I-262500J0D01*
G01*
G37*
G36*
G01*
X129577500Y-74465000D02*
X129052500Y-74465000D01*
G75*
G02*
X128790000Y-74202500I0J262500D01*
G01*
X128790000Y-73577500D01*
G75*
G02*
X129052500Y-73315000I262500J0D01*
G01*
X129577500Y-73315000D01*
G75*
G02*
X129840000Y-73577500I0J-262500D01*
G01*
X129840000Y-74202500D01*
G75*
G02*
X129577500Y-74465000I-262500J0D01*
G01*
G37*
%TD*%
%TO.C,C4*%
G36*
G01*
X111912500Y-75624999D02*
X112437500Y-75624999D01*
G75*
G02*
X112700000Y-75887499I0J-262500D01*
G01*
X112700000Y-76512499D01*
G75*
G02*
X112437500Y-76774999I-262500J0D01*
G01*
X111912500Y-76774999D01*
G75*
G02*
X111650000Y-76512499I0J262500D01*
G01*
X111650000Y-75887499D01*
G75*
G02*
X111912500Y-75624999I262500J0D01*
G01*
G37*
G36*
G01*
X111912500Y-73874999D02*
X112437500Y-73874999D01*
G75*
G02*
X112700000Y-74137499I0J-262500D01*
G01*
X112700000Y-74762499D01*
G75*
G02*
X112437500Y-75024999I-262500J0D01*
G01*
X111912500Y-75024999D01*
G75*
G02*
X111650000Y-74762499I0J262500D01*
G01*
X111650000Y-74137499D01*
G75*
G02*
X111912500Y-73874999I262500J0D01*
G01*
G37*
%TD*%
%TO.C,C3*%
G36*
G01*
X128002500Y-72715000D02*
X127477500Y-72715000D01*
G75*
G02*
X127215000Y-72452500I0J262500D01*
G01*
X127215000Y-71827500D01*
G75*
G02*
X127477500Y-71565000I262500J0D01*
G01*
X128002500Y-71565000D01*
G75*
G02*
X128265000Y-71827500I0J-262500D01*
G01*
X128265000Y-72452500D01*
G75*
G02*
X128002500Y-72715000I-262500J0D01*
G01*
G37*
G36*
G01*
X128002500Y-74465000D02*
X127477500Y-74465000D01*
G75*
G02*
X127215000Y-74202500I0J262500D01*
G01*
X127215000Y-73577500D01*
G75*
G02*
X127477500Y-73315000I262500J0D01*
G01*
X128002500Y-73315000D01*
G75*
G02*
X128265000Y-73577500I0J-262500D01*
G01*
X128265000Y-74202500D01*
G75*
G02*
X128002500Y-74465000I-262500J0D01*
G01*
G37*
%TD*%
%TO.C,C1*%
G36*
G01*
X114337500Y-72075000D02*
X113812500Y-72075000D01*
G75*
G02*
X113550000Y-71812500I0J262500D01*
G01*
X113550000Y-71187500D01*
G75*
G02*
X113812500Y-70925000I262500J0D01*
G01*
X114337500Y-70925000D01*
G75*
G02*
X114600000Y-71187500I0J-262500D01*
G01*
X114600000Y-71812500D01*
G75*
G02*
X114337500Y-72075000I-262500J0D01*
G01*
G37*
G36*
G01*
X114337500Y-73825000D02*
X113812500Y-73825000D01*
G75*
G02*
X113550000Y-73562500I0J262500D01*
G01*
X113550000Y-72937500D01*
G75*
G02*
X113812500Y-72675000I262500J0D01*
G01*
X114337500Y-72675000D01*
G75*
G02*
X114600000Y-72937500I0J-262500D01*
G01*
X114600000Y-73562500D01*
G75*
G02*
X114337500Y-73825000I-262500J0D01*
G01*
G37*
%TD*%
M02*
