%TF.GenerationSoftware,KiCad,Pcbnew,(5.1.6)-1*%
%TF.CreationDate,2020-11-14T16:31:53+00:00*%
%TF.ProjectId,Displayboard4,44697370-6c61-4796-926f-617264342e6b,rev?*%
%TF.SameCoordinates,Original*%
%TF.FileFunction,Copper,L1,Top*%
%TF.FilePolarity,Positive*%
%FSLAX46Y46*%
G04 Gerber Fmt 4.6, Leading zero omitted, Abs format (unit mm)*
G04 Created by KiCad (PCBNEW (5.1.6)-1) date 2020-11-14 16:31:53*
%MOMM*%
%LPD*%
G01*
G04 APERTURE LIST*
%TA.AperFunction,SMDPad,CuDef*%
%ADD10R,0.250000X1.100000*%
%TD*%
%TA.AperFunction,SMDPad,CuDef*%
%ADD11R,1.700000X1.500000*%
%TD*%
%TA.AperFunction,SMDPad,CuDef*%
%ADD12R,1.800000X0.800000*%
%TD*%
%TA.AperFunction,SMDPad,CuDef*%
%ADD13R,1.500000X0.600000*%
%TD*%
%TA.AperFunction,SMDPad,CuDef*%
%ADD14R,0.600000X1.500000*%
%TD*%
%TA.AperFunction,SMDPad,CuDef*%
%ADD15R,0.800000X1.800000*%
%TD*%
%TA.AperFunction,SMDPad,CuDef*%
%ADD16R,1.000000X1.000000*%
%TD*%
%TA.AperFunction,ViaPad*%
%ADD17C,0.800000*%
%TD*%
%TA.AperFunction,Conductor*%
%ADD18C,0.250000*%
%TD*%
%TA.AperFunction,Conductor*%
%ADD19C,0.600000*%
%TD*%
%TA.AperFunction,Conductor*%
%ADD20C,0.400000*%
%TD*%
G04 APERTURE END LIST*
D10*
%TO.P,U1,30*%
%TO.N,GND*%
X129750000Y-75870000D03*
%TO.P,U1,29*%
%TO.N,Net-(U1-Pad29)*%
X129250000Y-75870000D03*
%TO.P,U1,28*%
%TO.N,GND*%
X128750000Y-75870000D03*
%TO.P,U1,27*%
%TO.N,Net-(C5-Pad1)*%
X128250000Y-75870000D03*
%TO.P,U1,26*%
%TO.N,Net-(C3-Pad1)*%
X127750000Y-75870000D03*
%TO.P,U1,25*%
%TO.N,Net-(U1-Pad25)*%
X127250000Y-75870000D03*
%TO.P,U1,24*%
%TO.N,Net-(U1-Pad24)*%
X126750000Y-75870000D03*
%TO.P,U1,23*%
%TO.N,Net-(U1-Pad23)*%
X126250000Y-75870000D03*
%TO.P,U1,22*%
%TO.N,Net-(R1-Pad1)*%
X125750000Y-75870000D03*
%TO.P,U1,21*%
%TO.N,RST*%
X125250000Y-75870000D03*
%TO.P,U1,20*%
%TO.N,DC*%
X124750000Y-75870000D03*
%TO.P,U1,19*%
%TO.N,Display5_CS*%
X124250000Y-75870000D03*
%TO.P,U1,18*%
%TO.N,GND*%
X123750000Y-75870000D03*
%TO.P,U1,17*%
X123250000Y-75870000D03*
%TO.P,U1,16*%
X122750000Y-75870000D03*
%TO.P,U1,15*%
X122250000Y-75870000D03*
%TO.P,U1,14*%
%TO.N,CLK*%
X121750000Y-75870000D03*
%TO.P,U1,13*%
%TO.N,MOSI*%
X121250000Y-75870000D03*
%TO.P,U1,12*%
%TO.N,Net-(U1-Pad12)*%
X120750000Y-75870000D03*
%TO.P,U1,11*%
%TO.N,GND*%
X120250000Y-75870000D03*
%TO.P,U1,10*%
X119750000Y-75870000D03*
%TO.P,U1,9*%
X119250000Y-75870000D03*
%TO.P,U1,8*%
X118750000Y-75870000D03*
%TO.P,U1,7*%
X118250000Y-75870000D03*
%TO.P,U1,6*%
%TO.N,Net-(U1-Pad6)*%
X117750000Y-75870000D03*
%TO.P,U1,5*%
%TO.N,Net-(R2-Pad1)*%
X117250000Y-75870000D03*
%TO.P,U1,4*%
%TO.N,+3V3*%
X116750000Y-75870000D03*
%TO.P,U1,2*%
%TO.N,13V*%
X115750000Y-75870000D03*
%TO.P,U1,1*%
%TO.N,GND*%
X115250000Y-75870000D03*
%TO.P,U1,3*%
%TO.N,Net-(C2-Pad1)*%
X116250000Y-75870000D03*
D11*
%TO.P,U1,SUPPORT2*%
%TO.N,N/C*%
X131400000Y-79770000D03*
%TO.P,U1,SUPPORT1*%
X113600000Y-79770000D03*
%TD*%
%TO.P,C2,2*%
%TO.N,GND*%
%TA.AperFunction,SMDPad,CuDef*%
G36*
G01*
X116525001Y-71125000D02*
X115674999Y-71125000D01*
G75*
G02*
X115425000Y-70875001I0J249999D01*
G01*
X115425000Y-69799999D01*
G75*
G02*
X115674999Y-69550000I249999J0D01*
G01*
X116525001Y-69550000D01*
G75*
G02*
X116775000Y-69799999I0J-249999D01*
G01*
X116775000Y-70875001D01*
G75*
G02*
X116525001Y-71125000I-249999J0D01*
G01*
G37*
%TD.AperFunction*%
%TO.P,C2,1*%
%TO.N,Net-(C2-Pad1)*%
%TA.AperFunction,SMDPad,CuDef*%
G36*
G01*
X116525001Y-74000000D02*
X115674999Y-74000000D01*
G75*
G02*
X115425000Y-73750001I0J249999D01*
G01*
X115425000Y-72674999D01*
G75*
G02*
X115674999Y-72425000I249999J0D01*
G01*
X116525001Y-72425000D01*
G75*
G02*
X116775000Y-72674999I0J-249999D01*
G01*
X116775000Y-73750001D01*
G75*
G02*
X116525001Y-74000000I-249999J0D01*
G01*
G37*
%TD.AperFunction*%
%TD*%
D12*
%TO.P,J1,NC*%
%TO.N,N/C*%
X107825000Y-63100000D03*
X110525000Y-63100000D03*
X110525000Y-51600000D03*
X107825000Y-51600000D03*
D13*
%TO.P,J1,1*%
%TO.N,RXD*%
X107675000Y-52600000D03*
%TO.P,J1,3*%
%TO.N,IO0*%
X107675000Y-53600000D03*
%TO.P,J1,5*%
%TO.N,EN*%
X107675000Y-54600000D03*
%TO.P,J1,7*%
%TO.N,GND*%
X107675000Y-55600000D03*
%TO.P,J1,9*%
X107675000Y-56600000D03*
%TO.P,J1,11*%
X107675000Y-57600000D03*
%TO.P,J1,13*%
%TO.N,+3V3*%
X107675000Y-58600000D03*
%TO.P,J1,15*%
X107675000Y-59600000D03*
%TO.P,J1,17*%
%TO.N,13V*%
X107675000Y-60600000D03*
%TO.P,J1,19*%
X107675000Y-61600000D03*
%TO.P,J1,20*%
%TO.N,CLK*%
X110675000Y-62100000D03*
%TO.P,J1,18*%
%TO.N,MOSI*%
X110675000Y-61100000D03*
%TO.P,J1,16*%
%TO.N,DC*%
X110675000Y-60100000D03*
%TO.P,J1,14*%
%TO.N,Display6_CS*%
X110675000Y-59100000D03*
%TO.P,J1,12*%
%TO.N,Net-(J1-Pad12)*%
X110675000Y-58100000D03*
%TO.P,J1,10*%
%TO.N,Net-(J1-Pad10)*%
X110675000Y-57100000D03*
%TO.P,J1,8*%
%TO.N,Net-(J1-Pad8)*%
X110675000Y-56100000D03*
%TO.P,J1,6*%
%TO.N,Net-(J1-Pad6)*%
X110675000Y-55100000D03*
%TO.P,J1,4*%
%TO.N,RST*%
X110675000Y-54100000D03*
%TO.P,J1,2*%
%TO.N,TXD*%
X110675000Y-53100000D03*
%TD*%
%TO.P,R2,2*%
%TO.N,Net-(D2-Pad2)*%
%TA.AperFunction,SMDPad,CuDef*%
G36*
G01*
X119500000Y-73837500D02*
X119500000Y-73362500D01*
G75*
G02*
X119737500Y-73125000I237500J0D01*
G01*
X120312500Y-73125000D01*
G75*
G02*
X120550000Y-73362500I0J-237500D01*
G01*
X120550000Y-73837500D01*
G75*
G02*
X120312500Y-74075000I-237500J0D01*
G01*
X119737500Y-74075000D01*
G75*
G02*
X119500000Y-73837500I0J237500D01*
G01*
G37*
%TD.AperFunction*%
%TO.P,R2,1*%
%TO.N,Net-(R2-Pad1)*%
%TA.AperFunction,SMDPad,CuDef*%
G36*
G01*
X117750000Y-73837500D02*
X117750000Y-73362500D01*
G75*
G02*
X117987500Y-73125000I237500J0D01*
G01*
X118562500Y-73125000D01*
G75*
G02*
X118800000Y-73362500I0J-237500D01*
G01*
X118800000Y-73837500D01*
G75*
G02*
X118562500Y-74075000I-237500J0D01*
G01*
X117987500Y-74075000D01*
G75*
G02*
X117750000Y-73837500I0J237500D01*
G01*
G37*
%TD.AperFunction*%
%TD*%
%TO.P,R1,2*%
%TO.N,GND*%
%TA.AperFunction,SMDPad,CuDef*%
G36*
G01*
X126402500Y-72665000D02*
X125927500Y-72665000D01*
G75*
G02*
X125690000Y-72427500I0J237500D01*
G01*
X125690000Y-71852500D01*
G75*
G02*
X125927500Y-71615000I237500J0D01*
G01*
X126402500Y-71615000D01*
G75*
G02*
X126640000Y-71852500I0J-237500D01*
G01*
X126640000Y-72427500D01*
G75*
G02*
X126402500Y-72665000I-237500J0D01*
G01*
G37*
%TD.AperFunction*%
%TO.P,R1,1*%
%TO.N,Net-(R1-Pad1)*%
%TA.AperFunction,SMDPad,CuDef*%
G36*
G01*
X126402500Y-74415000D02*
X125927500Y-74415000D01*
G75*
G02*
X125690000Y-74177500I0J237500D01*
G01*
X125690000Y-73602500D01*
G75*
G02*
X125927500Y-73365000I237500J0D01*
G01*
X126402500Y-73365000D01*
G75*
G02*
X126640000Y-73602500I0J-237500D01*
G01*
X126640000Y-74177500D01*
G75*
G02*
X126402500Y-74415000I-237500J0D01*
G01*
G37*
%TD.AperFunction*%
%TD*%
D14*
%TO.P,J2,2*%
%TO.N,CLK*%
X136900000Y-55700000D03*
%TO.P,J2,4*%
%TO.N,MOSI*%
X135900000Y-55700000D03*
%TO.P,J2,6*%
%TO.N,DC*%
X134900000Y-55700000D03*
%TO.P,J2,8*%
%TO.N,Display6_CS*%
X133900000Y-55700000D03*
%TO.P,J2,10*%
%TO.N,Display5_CS*%
X132900000Y-55700000D03*
%TO.P,J2,12*%
%TO.N,Net-(J2-Pad12)*%
X131900000Y-55700000D03*
%TO.P,J2,14*%
%TO.N,Net-(J2-Pad14)*%
X130900000Y-55700000D03*
%TO.P,J2,16*%
%TO.N,Net-(J2-Pad16)*%
X129900000Y-55700000D03*
%TO.P,J2,18*%
%TO.N,RST*%
X128900000Y-55700000D03*
%TO.P,J2,20*%
%TO.N,Net-(J2-Pad20)*%
X127900000Y-55700000D03*
%TO.P,J2,19*%
%TO.N,TXD*%
X128400000Y-52700000D03*
%TO.P,J2,17*%
%TO.N,EN*%
X129400000Y-52700000D03*
%TO.P,J2,15*%
%TO.N,IO0*%
X130400000Y-52700000D03*
%TO.P,J2,13*%
%TO.N,RXD*%
X131400000Y-52700000D03*
%TO.P,J2,11*%
%TO.N,GND*%
X132400000Y-52700000D03*
%TO.P,J2,9*%
X133400000Y-52700000D03*
%TO.P,J2,7*%
%TO.N,+3V3*%
X134400000Y-52700000D03*
%TO.P,J2,5*%
X135400000Y-52700000D03*
%TO.P,J2,3*%
%TO.N,13V*%
X136400000Y-52700000D03*
%TO.P,J2,1*%
X137400000Y-52700000D03*
D15*
%TO.P,J2,NC*%
%TO.N,N/C*%
X138400000Y-52850000D03*
X138400000Y-55550000D03*
X126900000Y-55550000D03*
X126900000Y-52850000D03*
%TD*%
D16*
%TO.P,D2,2*%
%TO.N,Net-(D2-Pad2)*%
X120275000Y-72000000D03*
%TO.P,D2,1*%
%TO.N,Net-(D1-Pad2)*%
X120275000Y-69500000D03*
%TD*%
%TO.P,D1,2*%
%TO.N,Net-(D1-Pad2)*%
X118275000Y-72000000D03*
%TO.P,D1,1*%
%TO.N,GND*%
X118275000Y-69500000D03*
%TD*%
%TO.P,C5,2*%
%TO.N,GND*%
%TA.AperFunction,SMDPad,CuDef*%
G36*
G01*
X129552500Y-72665000D02*
X129077500Y-72665000D01*
G75*
G02*
X128840000Y-72427500I0J237500D01*
G01*
X128840000Y-71852500D01*
G75*
G02*
X129077500Y-71615000I237500J0D01*
G01*
X129552500Y-71615000D01*
G75*
G02*
X129790000Y-71852500I0J-237500D01*
G01*
X129790000Y-72427500D01*
G75*
G02*
X129552500Y-72665000I-237500J0D01*
G01*
G37*
%TD.AperFunction*%
%TO.P,C5,1*%
%TO.N,Net-(C5-Pad1)*%
%TA.AperFunction,SMDPad,CuDef*%
G36*
G01*
X129552500Y-74415000D02*
X129077500Y-74415000D01*
G75*
G02*
X128840000Y-74177500I0J237500D01*
G01*
X128840000Y-73602500D01*
G75*
G02*
X129077500Y-73365000I237500J0D01*
G01*
X129552500Y-73365000D01*
G75*
G02*
X129790000Y-73602500I0J-237500D01*
G01*
X129790000Y-74177500D01*
G75*
G02*
X129552500Y-74415000I-237500J0D01*
G01*
G37*
%TD.AperFunction*%
%TD*%
%TO.P,C4,2*%
%TO.N,GND*%
%TA.AperFunction,SMDPad,CuDef*%
G36*
G01*
X111937500Y-75674999D02*
X112412500Y-75674999D01*
G75*
G02*
X112650000Y-75912499I0J-237500D01*
G01*
X112650000Y-76487499D01*
G75*
G02*
X112412500Y-76724999I-237500J0D01*
G01*
X111937500Y-76724999D01*
G75*
G02*
X111700000Y-76487499I0J237500D01*
G01*
X111700000Y-75912499D01*
G75*
G02*
X111937500Y-75674999I237500J0D01*
G01*
G37*
%TD.AperFunction*%
%TO.P,C4,1*%
%TO.N,+3V3*%
%TA.AperFunction,SMDPad,CuDef*%
G36*
G01*
X111937500Y-73924999D02*
X112412500Y-73924999D01*
G75*
G02*
X112650000Y-74162499I0J-237500D01*
G01*
X112650000Y-74737499D01*
G75*
G02*
X112412500Y-74974999I-237500J0D01*
G01*
X111937500Y-74974999D01*
G75*
G02*
X111700000Y-74737499I0J237500D01*
G01*
X111700000Y-74162499D01*
G75*
G02*
X111937500Y-73924999I237500J0D01*
G01*
G37*
%TD.AperFunction*%
%TD*%
%TO.P,C3,2*%
%TO.N,GND*%
%TA.AperFunction,SMDPad,CuDef*%
G36*
G01*
X127977500Y-72665000D02*
X127502500Y-72665000D01*
G75*
G02*
X127265000Y-72427500I0J237500D01*
G01*
X127265000Y-71852500D01*
G75*
G02*
X127502500Y-71615000I237500J0D01*
G01*
X127977500Y-71615000D01*
G75*
G02*
X128215000Y-71852500I0J-237500D01*
G01*
X128215000Y-72427500D01*
G75*
G02*
X127977500Y-72665000I-237500J0D01*
G01*
G37*
%TD.AperFunction*%
%TO.P,C3,1*%
%TO.N,Net-(C3-Pad1)*%
%TA.AperFunction,SMDPad,CuDef*%
G36*
G01*
X127977500Y-74415000D02*
X127502500Y-74415000D01*
G75*
G02*
X127265000Y-74177500I0J237500D01*
G01*
X127265000Y-73602500D01*
G75*
G02*
X127502500Y-73365000I237500J0D01*
G01*
X127977500Y-73365000D01*
G75*
G02*
X128215000Y-73602500I0J-237500D01*
G01*
X128215000Y-74177500D01*
G75*
G02*
X127977500Y-74415000I-237500J0D01*
G01*
G37*
%TD.AperFunction*%
%TD*%
%TO.P,C1,2*%
%TO.N,GND*%
%TA.AperFunction,SMDPad,CuDef*%
G36*
G01*
X114312500Y-72025000D02*
X113837500Y-72025000D01*
G75*
G02*
X113600000Y-71787500I0J237500D01*
G01*
X113600000Y-71212500D01*
G75*
G02*
X113837500Y-70975000I237500J0D01*
G01*
X114312500Y-70975000D01*
G75*
G02*
X114550000Y-71212500I0J-237500D01*
G01*
X114550000Y-71787500D01*
G75*
G02*
X114312500Y-72025000I-237500J0D01*
G01*
G37*
%TD.AperFunction*%
%TO.P,C1,1*%
%TO.N,13V*%
%TA.AperFunction,SMDPad,CuDef*%
G36*
G01*
X114312500Y-73775000D02*
X113837500Y-73775000D01*
G75*
G02*
X113600000Y-73537500I0J237500D01*
G01*
X113600000Y-72962500D01*
G75*
G02*
X113837500Y-72725000I237500J0D01*
G01*
X114312500Y-72725000D01*
G75*
G02*
X114550000Y-72962500I0J-237500D01*
G01*
X114550000Y-73537500D01*
G75*
G02*
X114312500Y-73775000I-237500J0D01*
G01*
G37*
%TD.AperFunction*%
%TD*%
D17*
%TO.N,GND*%
X110990000Y-65760000D03*
X112490000Y-65760000D03*
X113990000Y-65760000D03*
X115490000Y-65760000D03*
X116990000Y-65760000D03*
X110990000Y-67260000D03*
X112490000Y-67260000D03*
X113990000Y-67260000D03*
X115490000Y-67260000D03*
X116990000Y-67260000D03*
X110990000Y-68760000D03*
X112490000Y-68760000D03*
X113990000Y-68760000D03*
X115490000Y-68760000D03*
X116990000Y-68760000D03*
X118715000Y-78140000D03*
X114425000Y-75275000D03*
X131475000Y-67575000D03*
X132975000Y-67575000D03*
X134475000Y-67575000D03*
X135975000Y-67575000D03*
X137475000Y-67575000D03*
X131475000Y-69075000D03*
X132975000Y-69075000D03*
X134475000Y-69075000D03*
X135975000Y-69075000D03*
X137475000Y-69075000D03*
X131475000Y-70575000D03*
X132975000Y-70575000D03*
X134475000Y-70575000D03*
X135975000Y-70575000D03*
X137475000Y-70575000D03*
X131475000Y-72075000D03*
X132975000Y-72075000D03*
X134475000Y-72075000D03*
X135975000Y-72075000D03*
X137475000Y-72075000D03*
X131475000Y-73575000D03*
X132975000Y-73575000D03*
X134475000Y-73575000D03*
X135975000Y-73575000D03*
X137475000Y-73575000D03*
X132900000Y-51330000D03*
X131890000Y-51330000D03*
X106290000Y-56100000D03*
X106290000Y-57100000D03*
X106290000Y-58100000D03*
X120215000Y-78140000D03*
X121715000Y-78140000D03*
X123215000Y-78140000D03*
X124715000Y-78140000D03*
X126215000Y-78140000D03*
X118715000Y-79640000D03*
X120215000Y-79640000D03*
X121715000Y-79640000D03*
X123215000Y-79640000D03*
X124715000Y-79640000D03*
X126215000Y-79640000D03*
X118715000Y-81140000D03*
X120215000Y-81140000D03*
X121715000Y-81140000D03*
X123215000Y-81140000D03*
X124715000Y-81140000D03*
X126215000Y-81140000D03*
X108105000Y-78135000D03*
X106605000Y-76635000D03*
X108105000Y-79635000D03*
X106605000Y-79635000D03*
X106605000Y-78135000D03*
X108105000Y-81135000D03*
X106605000Y-81135000D03*
X108105000Y-76635000D03*
X106605000Y-75135000D03*
X108105000Y-75135000D03*
X126950000Y-71080000D03*
X128530000Y-71080000D03*
X105290000Y-58100000D03*
X105290000Y-57100000D03*
X105290000Y-56100000D03*
%TO.N,13V*%
X109050000Y-61110000D03*
X136900000Y-51330000D03*
X106430010Y-61100000D03*
X137860000Y-51330000D03*
%TO.N,+3V3*%
X109050000Y-58100000D03*
X134900000Y-54070000D03*
X133900000Y-54070000D03*
X109050000Y-59100000D03*
%TO.N,RST*%
X125490000Y-57390000D03*
X125490153Y-69710153D03*
%TO.N,Display5_CS*%
X124254990Y-58115010D03*
X124250000Y-68810000D03*
%TD*%
D18*
%TO.N,GND*%
X115250000Y-75550000D02*
X115250000Y-75870000D01*
X114425000Y-75275000D02*
X114975000Y-75275000D01*
X114975000Y-75275000D02*
X115250000Y-75550000D01*
D19*
X119750000Y-75870000D02*
X120124999Y-75870000D01*
X118750000Y-75870000D02*
X118375001Y-75870000D01*
X122750000Y-75870000D02*
X122375010Y-75870000D01*
X123250000Y-75870000D02*
X123624990Y-75870000D01*
X106790000Y-55600000D02*
X106290000Y-56100000D01*
X107675000Y-55600000D02*
X106790000Y-55600000D01*
X106790000Y-56600000D02*
X106290000Y-57100000D01*
X107675000Y-56600000D02*
X106790000Y-56600000D01*
X106790000Y-57600000D02*
X107675000Y-57600000D01*
X106290000Y-58100000D02*
X106790000Y-57600000D01*
X133400000Y-51830000D02*
X132900000Y-51330000D01*
X133400000Y-52700000D02*
X133400000Y-51830000D01*
X132400000Y-51840000D02*
X131890000Y-51330000D01*
X132400000Y-52700000D02*
X132400000Y-51840000D01*
D18*
X127470000Y-78140000D02*
X126215000Y-78140000D01*
X128750000Y-75870000D02*
X128750000Y-76860000D01*
X128750000Y-76860000D02*
X127470000Y-78140000D01*
X129750000Y-75300000D02*
X131475000Y-73575000D01*
X129750000Y-75870000D02*
X129750000Y-75300000D01*
%TO.N,13V*%
X107650000Y-60575000D02*
X107675000Y-60600000D01*
X107650000Y-61625000D02*
X107675000Y-61600000D01*
X115380000Y-74700000D02*
X115325000Y-74700000D01*
X115750000Y-75070000D02*
X115380000Y-74700000D01*
X115750000Y-75870000D02*
X115750000Y-75070000D01*
D19*
X108560000Y-61600000D02*
X109050000Y-61110000D01*
X107675000Y-61600000D02*
X108560000Y-61600000D01*
X106930010Y-60600000D02*
X106430010Y-61100000D01*
X106410010Y-61120000D02*
X106430010Y-61100000D01*
X115325000Y-74700000D02*
X106410010Y-65785010D01*
X107675000Y-60600000D02*
X106930010Y-60600000D01*
X106410010Y-65785010D02*
X106410010Y-61120000D01*
X136400000Y-51830000D02*
X136900000Y-51330000D01*
X136400000Y-52700000D02*
X136400000Y-51830000D01*
X137400000Y-51790000D02*
X137860000Y-51330000D01*
X137400000Y-52700000D02*
X137400000Y-51790000D01*
D18*
%TO.N,Net-(C2-Pad1)*%
X116250000Y-73412500D02*
X116100000Y-73262500D01*
X116250000Y-75870000D02*
X116250000Y-73412500D01*
%TO.N,Net-(C3-Pad1)*%
X127750000Y-73900000D02*
X127740000Y-73890000D01*
X127750000Y-75870000D02*
X127750000Y-73900000D01*
%TO.N,+3V3*%
X116750000Y-76550000D02*
X116075000Y-77225000D01*
X116750000Y-75870000D02*
X116750000Y-76550000D01*
D19*
X108550000Y-58600000D02*
X109050000Y-58100000D01*
X107675000Y-58600000D02*
X108550000Y-58600000D01*
X108550000Y-59600000D02*
X109050000Y-59100000D01*
X107675000Y-59600000D02*
X108550000Y-59600000D01*
X115029998Y-77225000D02*
X116075000Y-77225000D01*
X105530000Y-67725002D02*
X115029998Y-77225000D01*
X105530000Y-60295000D02*
X105530000Y-67725002D01*
X107225000Y-58600000D02*
X105530000Y-60295000D01*
X107675000Y-58600000D02*
X107225000Y-58600000D01*
X135400000Y-53570000D02*
X134900000Y-54070000D01*
X135400000Y-52700000D02*
X135400000Y-53570000D01*
X134400000Y-53570000D02*
X133900000Y-54070000D01*
X134400000Y-52700000D02*
X134400000Y-53570000D01*
D18*
%TO.N,Net-(C5-Pad1)*%
X128250000Y-74955000D02*
X128250000Y-75870000D01*
X129315000Y-73890000D02*
X128250000Y-74955000D01*
%TO.N,Net-(D1-Pad2)*%
X119275000Y-71000000D02*
X118275000Y-72000000D01*
X120275000Y-69500000D02*
X119275000Y-70500000D01*
X119275000Y-70500000D02*
X119275000Y-71000000D01*
%TO.N,Net-(D2-Pad2)*%
X120025000Y-72250000D02*
X120275000Y-72000000D01*
X120025000Y-73600000D02*
X120025000Y-72250000D01*
%TO.N,RXD*%
X131400000Y-52175000D02*
X131400000Y-52700000D01*
X107115009Y-50424989D02*
X129649989Y-50424989D01*
X107050000Y-52600000D02*
X106525000Y-52075000D01*
X107675000Y-52600000D02*
X107050000Y-52600000D01*
X129649989Y-50424989D02*
X131400000Y-52175000D01*
X106525000Y-51014998D02*
X107115009Y-50424989D01*
X106525000Y-52075000D02*
X106525000Y-51014998D01*
%TO.N,EN*%
X129400000Y-52175000D02*
X129400000Y-52700000D01*
X128675000Y-51450000D02*
X129400000Y-52175000D01*
X112470000Y-51450000D02*
X128675000Y-51450000D01*
X107675000Y-54600000D02*
X108200000Y-54600000D01*
X111495000Y-52425000D02*
X112470000Y-51450000D01*
X109525000Y-53275000D02*
X109525000Y-52700000D01*
X108200000Y-54600000D02*
X109525000Y-53275000D01*
X109800000Y-52425000D02*
X111495000Y-52425000D01*
X109525000Y-52700000D02*
X109800000Y-52425000D01*
%TO.N,IO0*%
X130400000Y-52175000D02*
X130400000Y-52700000D01*
X129100000Y-50875000D02*
X130400000Y-52175000D01*
X109364998Y-50875000D02*
X129100000Y-50875000D01*
X109074989Y-51165009D02*
X109364998Y-50875000D01*
X109074989Y-52725011D02*
X109074989Y-51165009D01*
X107675000Y-53600000D02*
X108200000Y-53600000D01*
X108200000Y-53600000D02*
X109074989Y-52725011D01*
%TO.N,RST*%
X127845002Y-57390000D02*
X125490000Y-57390000D01*
X128900000Y-56335002D02*
X127845002Y-57390000D01*
X128900000Y-55700000D02*
X128900000Y-56335002D01*
X114540000Y-57390000D02*
X125490000Y-57390000D01*
X111250000Y-54100000D02*
X114540000Y-57390000D01*
X110675000Y-54100000D02*
X111250000Y-54100000D01*
X125250000Y-73568590D02*
X125250000Y-75870000D01*
X125250000Y-69950306D02*
X125250000Y-73568590D01*
X125490153Y-69710153D02*
X125250000Y-69950306D01*
%TO.N,DC*%
X130594946Y-60640056D02*
X134900000Y-56335002D01*
X134900000Y-56335002D02*
X134900000Y-55700000D01*
X111770056Y-60640056D02*
X130594946Y-60640056D01*
X111230000Y-60100000D02*
X111770056Y-60640056D01*
X110675000Y-60100000D02*
X111230000Y-60100000D01*
X137600000Y-54764998D02*
X137600000Y-56575000D01*
X137335002Y-54500000D02*
X137600000Y-54764998D01*
X137600000Y-56575000D02*
X124750000Y-69425000D01*
X135575000Y-54500000D02*
X137335002Y-54500000D01*
X134900000Y-55175000D02*
X135575000Y-54500000D01*
X124750000Y-69425000D02*
X124750000Y-72750000D01*
X134900000Y-55700000D02*
X134900000Y-55175000D01*
X124750000Y-72750000D02*
X124750000Y-75870000D01*
%TO.N,CLK*%
X121750000Y-75870000D02*
X121750000Y-72900000D01*
X121750000Y-72900000D02*
X121750000Y-72725000D01*
X110675000Y-62100000D02*
X111300000Y-62100000D01*
X117736411Y-62100000D02*
X121750000Y-66113589D01*
X121750000Y-66113589D02*
X121750000Y-72900000D01*
X111300000Y-62100000D02*
X117736411Y-62100000D01*
X136900000Y-56335002D02*
X136900000Y-55700000D01*
X117736411Y-62100000D02*
X131135002Y-62100000D01*
X131135002Y-62100000D02*
X136900000Y-56335002D01*
%TO.N,MOSI*%
X121250000Y-66250000D02*
X121250000Y-75870000D01*
X119075000Y-64075000D02*
X121250000Y-66250000D01*
X110140000Y-61100000D02*
X109300000Y-61940000D01*
X110675000Y-61100000D02*
X110140000Y-61100000D01*
X109300000Y-61940000D02*
X109300000Y-63650000D01*
X109725000Y-64075000D02*
X119075000Y-64075000D01*
X109300000Y-63650000D02*
X109725000Y-64075000D01*
X131135002Y-61100000D02*
X135900000Y-56335002D01*
X135900000Y-56335002D02*
X135900000Y-55700000D01*
X110675000Y-61100000D02*
X131135002Y-61100000D01*
%TO.N,Display6_CS*%
X133900000Y-56335002D02*
X133900000Y-55700000D01*
X110675000Y-59100000D02*
X111220000Y-59100000D01*
X130044957Y-60190045D02*
X133900000Y-56335002D01*
X111220000Y-59100000D02*
X112310045Y-60190045D01*
X112310045Y-60190045D02*
X130044957Y-60190045D01*
%TO.N,Net-(R1-Pad1)*%
X125750000Y-74305000D02*
X126165000Y-73890000D01*
X125750000Y-75870000D02*
X125750000Y-74305000D01*
%TO.N,Net-(R2-Pad1)*%
X117250000Y-74625000D02*
X118275000Y-73600000D01*
X117250000Y-75870000D02*
X117250000Y-74625000D01*
%TO.N,TXD*%
X127464999Y-54075001D02*
X128400000Y-53140000D01*
X112205001Y-54075001D02*
X127464999Y-54075001D01*
X128400000Y-53140000D02*
X128400000Y-52700000D01*
X110675000Y-53100000D02*
X111230000Y-53100000D01*
X111230000Y-53100000D02*
X112205001Y-54075001D01*
%TO.N,Display5_CS*%
X124250000Y-75870000D02*
X124250000Y-68810000D01*
X131119992Y-58115010D02*
X124254990Y-58115010D01*
X132900000Y-55700000D02*
X132900000Y-56335002D01*
X132900000Y-56335002D02*
X131119992Y-58115010D01*
%TO.N,Net-(J1-Pad12)*%
X111200000Y-58100000D02*
X111215010Y-58115010D01*
%TD*%
D20*
%TO.N,GND*%
G36*
X141694323Y-66279681D02*
G01*
X141683194Y-66283960D01*
X141552749Y-66300000D01*
X141193162Y-66300000D01*
X141173180Y-66301001D01*
X140974357Y-66320965D01*
X140935189Y-66328911D01*
X140833115Y-66360513D01*
X140637770Y-66360513D01*
X140417624Y-66404303D01*
X140210251Y-66490200D01*
X140023620Y-66614903D01*
X139864903Y-66773620D01*
X139740200Y-66960251D01*
X139654303Y-67167624D01*
X139610513Y-67387770D01*
X139610513Y-67612230D01*
X139654303Y-67832376D01*
X139740200Y-68039749D01*
X139864903Y-68226380D01*
X140023620Y-68385097D01*
X140210251Y-68509800D01*
X140417624Y-68595697D01*
X140637770Y-68639487D01*
X140819761Y-68639487D01*
X140918045Y-68670336D01*
X140957698Y-68678488D01*
X141159070Y-68698973D01*
X141179311Y-68700000D01*
X141542750Y-68700000D01*
X141675292Y-68716298D01*
X141693876Y-68723443D01*
X139457941Y-84375000D01*
X132258883Y-84375000D01*
X130463658Y-82579776D01*
X130444080Y-82555920D01*
X130348911Y-82477817D01*
X130240334Y-82419781D01*
X130122521Y-82384043D01*
X130030704Y-82375000D01*
X130030694Y-82375000D01*
X130000000Y-82371977D01*
X129969306Y-82375000D01*
X115030693Y-82375000D01*
X114999999Y-82371977D01*
X114969305Y-82375000D01*
X114969296Y-82375000D01*
X114877479Y-82384043D01*
X114759666Y-82419781D01*
X114759664Y-82419782D01*
X114651087Y-82477818D01*
X114603677Y-82516727D01*
X114555920Y-82555920D01*
X114536346Y-82579771D01*
X112741118Y-84375000D01*
X105542059Y-84375000D01*
X104777060Y-79020000D01*
X112147097Y-79020000D01*
X112147097Y-80520000D01*
X112158682Y-80637621D01*
X112192990Y-80750721D01*
X112248704Y-80854955D01*
X112323683Y-80946317D01*
X112415045Y-81021296D01*
X112519279Y-81077010D01*
X112632379Y-81111318D01*
X112750000Y-81122903D01*
X114450000Y-81122903D01*
X114567621Y-81111318D01*
X114680721Y-81077010D01*
X114784955Y-81021296D01*
X114876317Y-80946317D01*
X114951296Y-80854955D01*
X115007010Y-80750721D01*
X115041318Y-80637621D01*
X115052903Y-80520000D01*
X115052903Y-79020000D01*
X129947097Y-79020000D01*
X129947097Y-80520000D01*
X129958682Y-80637621D01*
X129992990Y-80750721D01*
X130048704Y-80854955D01*
X130123683Y-80946317D01*
X130215045Y-81021296D01*
X130319279Y-81077010D01*
X130432379Y-81111318D01*
X130550000Y-81122903D01*
X132250000Y-81122903D01*
X132367621Y-81111318D01*
X132480721Y-81077010D01*
X132584955Y-81021296D01*
X132676317Y-80946317D01*
X132751296Y-80854955D01*
X132807010Y-80750721D01*
X132841318Y-80637621D01*
X132852903Y-80520000D01*
X132852903Y-79020000D01*
X132841318Y-78902379D01*
X132807010Y-78789279D01*
X132751296Y-78685045D01*
X132676317Y-78593683D01*
X132584955Y-78518704D01*
X132480721Y-78462990D01*
X132367621Y-78428682D01*
X132250000Y-78417097D01*
X130550000Y-78417097D01*
X130432379Y-78428682D01*
X130319279Y-78462990D01*
X130215045Y-78518704D01*
X130123683Y-78593683D01*
X130048704Y-78685045D01*
X129992990Y-78789279D01*
X129958682Y-78902379D01*
X129947097Y-79020000D01*
X115052903Y-79020000D01*
X115041318Y-78902379D01*
X115007010Y-78789279D01*
X114951296Y-78685045D01*
X114876317Y-78593683D01*
X114784955Y-78518704D01*
X114680721Y-78462990D01*
X114567621Y-78428682D01*
X114450000Y-78417097D01*
X112750000Y-78417097D01*
X112632379Y-78428682D01*
X112519279Y-78462990D01*
X112415045Y-78518704D01*
X112323683Y-78593683D01*
X112248704Y-78685045D01*
X112192990Y-78789279D01*
X112158682Y-78902379D01*
X112147097Y-79020000D01*
X104777060Y-79020000D01*
X103307015Y-68729691D01*
X103340506Y-68716815D01*
X103477251Y-68700000D01*
X103847928Y-68700000D01*
X103868703Y-68698918D01*
X104075324Y-68677339D01*
X104115976Y-68668754D01*
X104206661Y-68639487D01*
X104362230Y-68639487D01*
X104582376Y-68595697D01*
X104789749Y-68509800D01*
X104940966Y-68408760D01*
X111097097Y-74564892D01*
X111097097Y-74737499D01*
X111113245Y-74901453D01*
X111161069Y-75059107D01*
X111238730Y-75204402D01*
X111343245Y-75331754D01*
X111470597Y-75436269D01*
X111615892Y-75513930D01*
X111773546Y-75561754D01*
X111937500Y-75577902D01*
X112110107Y-75577902D01*
X114362345Y-77830140D01*
X114390523Y-77864475D01*
X114424858Y-77892653D01*
X114424860Y-77892655D01*
X114431438Y-77898053D01*
X114527566Y-77976943D01*
X114683917Y-78060514D01*
X114853567Y-78111977D01*
X115029997Y-78129354D01*
X115074204Y-78125000D01*
X116119207Y-78125000D01*
X116251431Y-78111977D01*
X116421081Y-78060514D01*
X116577432Y-77976943D01*
X116714475Y-77864475D01*
X116826943Y-77727432D01*
X116910514Y-77571081D01*
X116961977Y-77401431D01*
X116966140Y-77359165D01*
X117237477Y-77087828D01*
X117265132Y-77065132D01*
X117299789Y-77022903D01*
X117375000Y-77022903D01*
X117492621Y-77011318D01*
X117500000Y-77009080D01*
X117507379Y-77011318D01*
X117625000Y-77022903D01*
X117875000Y-77022903D01*
X117992621Y-77011318D01*
X118105721Y-76977010D01*
X118209955Y-76921296D01*
X118301317Y-76846317D01*
X118376296Y-76754955D01*
X118432010Y-76650721D01*
X118466318Y-76537621D01*
X118477903Y-76420000D01*
X118477903Y-75320000D01*
X118466318Y-75202379D01*
X118432010Y-75089279D01*
X118376296Y-74985045D01*
X118301317Y-74893683D01*
X118209955Y-74818704D01*
X118126310Y-74773995D01*
X118222401Y-74677903D01*
X118562500Y-74677903D01*
X118726454Y-74661755D01*
X118884108Y-74613931D01*
X119029403Y-74536270D01*
X119150000Y-74437299D01*
X119270597Y-74536270D01*
X119415892Y-74613931D01*
X119573546Y-74661755D01*
X119737500Y-74677903D01*
X120312500Y-74677903D01*
X120476454Y-74661755D01*
X120525001Y-74647028D01*
X120525001Y-74726946D01*
X120507379Y-74728682D01*
X120394279Y-74762990D01*
X120290045Y-74818704D01*
X120198683Y-74893683D01*
X120123704Y-74985045D01*
X120067990Y-75089279D01*
X120033682Y-75202379D01*
X120022097Y-75320000D01*
X120022097Y-76420000D01*
X120033682Y-76537621D01*
X120067990Y-76650721D01*
X120123704Y-76754955D01*
X120198683Y-76846317D01*
X120290045Y-76921296D01*
X120394279Y-76977010D01*
X120507379Y-77011318D01*
X120625000Y-77022903D01*
X120875000Y-77022903D01*
X120992621Y-77011318D01*
X121000000Y-77009080D01*
X121007379Y-77011318D01*
X121125000Y-77022903D01*
X121375000Y-77022903D01*
X121492621Y-77011318D01*
X121500000Y-77009080D01*
X121507379Y-77011318D01*
X121625000Y-77022903D01*
X121875000Y-77022903D01*
X121992621Y-77011318D01*
X122105721Y-76977010D01*
X122209955Y-76921296D01*
X122301317Y-76846317D01*
X122376296Y-76754955D01*
X122432010Y-76650721D01*
X122466318Y-76537621D01*
X122477903Y-76420000D01*
X122477903Y-75320000D01*
X122476918Y-75310000D01*
X123523082Y-75310000D01*
X123522097Y-75320000D01*
X123522097Y-76420000D01*
X123533682Y-76537621D01*
X123567990Y-76650721D01*
X123623704Y-76754955D01*
X123698683Y-76846317D01*
X123790045Y-76921296D01*
X123894279Y-76977010D01*
X124007379Y-77011318D01*
X124125000Y-77022903D01*
X124375000Y-77022903D01*
X124492621Y-77011318D01*
X124500000Y-77009080D01*
X124507379Y-77011318D01*
X124625000Y-77022903D01*
X124875000Y-77022903D01*
X124992621Y-77011318D01*
X125000000Y-77009080D01*
X125007379Y-77011318D01*
X125125000Y-77022903D01*
X125375000Y-77022903D01*
X125492621Y-77011318D01*
X125500000Y-77009080D01*
X125507379Y-77011318D01*
X125625000Y-77022903D01*
X125875000Y-77022903D01*
X125992621Y-77011318D01*
X126000000Y-77009080D01*
X126007379Y-77011318D01*
X126125000Y-77022903D01*
X126375000Y-77022903D01*
X126492621Y-77011318D01*
X126500000Y-77009080D01*
X126507379Y-77011318D01*
X126625000Y-77022903D01*
X126875000Y-77022903D01*
X126992621Y-77011318D01*
X127000000Y-77009080D01*
X127007379Y-77011318D01*
X127125000Y-77022903D01*
X127375000Y-77022903D01*
X127492621Y-77011318D01*
X127500000Y-77009080D01*
X127507379Y-77011318D01*
X127625000Y-77022903D01*
X127875000Y-77022903D01*
X127992621Y-77011318D01*
X128000000Y-77009080D01*
X128007379Y-77011318D01*
X128125000Y-77022903D01*
X128375000Y-77022903D01*
X128492621Y-77011318D01*
X128605721Y-76977010D01*
X128709955Y-76921296D01*
X128750000Y-76888432D01*
X128790045Y-76921296D01*
X128894279Y-76977010D01*
X129007379Y-77011318D01*
X129125000Y-77022903D01*
X129375000Y-77022903D01*
X129492621Y-77011318D01*
X129605721Y-76977010D01*
X129709955Y-76921296D01*
X129801317Y-76846317D01*
X129876296Y-76754955D01*
X129932010Y-76650721D01*
X129966318Y-76537621D01*
X129977903Y-76420000D01*
X129977903Y-75320000D01*
X129966318Y-75202379D01*
X129932010Y-75089279D01*
X129876296Y-74985045D01*
X129855415Y-74959601D01*
X129874108Y-74953931D01*
X130019403Y-74876270D01*
X130146755Y-74771755D01*
X130251270Y-74644403D01*
X130328931Y-74499108D01*
X130376755Y-74341454D01*
X130392903Y-74177500D01*
X130392903Y-73602500D01*
X130376755Y-73438546D01*
X130328931Y-73280892D01*
X130251270Y-73135597D01*
X130146755Y-73008245D01*
X130019403Y-72903730D01*
X129874108Y-72826069D01*
X129716454Y-72778245D01*
X129552500Y-72762097D01*
X129077500Y-72762097D01*
X128913546Y-72778245D01*
X128755892Y-72826069D01*
X128610597Y-72903730D01*
X128527500Y-72971926D01*
X128444403Y-72903730D01*
X128299108Y-72826069D01*
X128141454Y-72778245D01*
X127977500Y-72762097D01*
X127502500Y-72762097D01*
X127338546Y-72778245D01*
X127180892Y-72826069D01*
X127035597Y-72903730D01*
X126952500Y-72971926D01*
X126869403Y-72903730D01*
X126724108Y-72826069D01*
X126566454Y-72778245D01*
X126402500Y-72762097D01*
X125975000Y-72762097D01*
X125975000Y-70588879D01*
X126127616Y-70486904D01*
X126266904Y-70347616D01*
X126376342Y-70183831D01*
X126451724Y-70001842D01*
X126490153Y-69808644D01*
X126490153Y-69611662D01*
X126451724Y-69418464D01*
X126376342Y-69236475D01*
X126266904Y-69072690D01*
X126197259Y-69003045D01*
X138087477Y-57112828D01*
X138115132Y-57090132D01*
X138115240Y-57090000D01*
X140381512Y-57090000D01*
X141694323Y-66279681D01*
G37*
X141694323Y-66279681D02*
X141683194Y-66283960D01*
X141552749Y-66300000D01*
X141193162Y-66300000D01*
X141173180Y-66301001D01*
X140974357Y-66320965D01*
X140935189Y-66328911D01*
X140833115Y-66360513D01*
X140637770Y-66360513D01*
X140417624Y-66404303D01*
X140210251Y-66490200D01*
X140023620Y-66614903D01*
X139864903Y-66773620D01*
X139740200Y-66960251D01*
X139654303Y-67167624D01*
X139610513Y-67387770D01*
X139610513Y-67612230D01*
X139654303Y-67832376D01*
X139740200Y-68039749D01*
X139864903Y-68226380D01*
X140023620Y-68385097D01*
X140210251Y-68509800D01*
X140417624Y-68595697D01*
X140637770Y-68639487D01*
X140819761Y-68639487D01*
X140918045Y-68670336D01*
X140957698Y-68678488D01*
X141159070Y-68698973D01*
X141179311Y-68700000D01*
X141542750Y-68700000D01*
X141675292Y-68716298D01*
X141693876Y-68723443D01*
X139457941Y-84375000D01*
X132258883Y-84375000D01*
X130463658Y-82579776D01*
X130444080Y-82555920D01*
X130348911Y-82477817D01*
X130240334Y-82419781D01*
X130122521Y-82384043D01*
X130030704Y-82375000D01*
X130030694Y-82375000D01*
X130000000Y-82371977D01*
X129969306Y-82375000D01*
X115030693Y-82375000D01*
X114999999Y-82371977D01*
X114969305Y-82375000D01*
X114969296Y-82375000D01*
X114877479Y-82384043D01*
X114759666Y-82419781D01*
X114759664Y-82419782D01*
X114651087Y-82477818D01*
X114603677Y-82516727D01*
X114555920Y-82555920D01*
X114536346Y-82579771D01*
X112741118Y-84375000D01*
X105542059Y-84375000D01*
X104777060Y-79020000D01*
X112147097Y-79020000D01*
X112147097Y-80520000D01*
X112158682Y-80637621D01*
X112192990Y-80750721D01*
X112248704Y-80854955D01*
X112323683Y-80946317D01*
X112415045Y-81021296D01*
X112519279Y-81077010D01*
X112632379Y-81111318D01*
X112750000Y-81122903D01*
X114450000Y-81122903D01*
X114567621Y-81111318D01*
X114680721Y-81077010D01*
X114784955Y-81021296D01*
X114876317Y-80946317D01*
X114951296Y-80854955D01*
X115007010Y-80750721D01*
X115041318Y-80637621D01*
X115052903Y-80520000D01*
X115052903Y-79020000D01*
X129947097Y-79020000D01*
X129947097Y-80520000D01*
X129958682Y-80637621D01*
X129992990Y-80750721D01*
X130048704Y-80854955D01*
X130123683Y-80946317D01*
X130215045Y-81021296D01*
X130319279Y-81077010D01*
X130432379Y-81111318D01*
X130550000Y-81122903D01*
X132250000Y-81122903D01*
X132367621Y-81111318D01*
X132480721Y-81077010D01*
X132584955Y-81021296D01*
X132676317Y-80946317D01*
X132751296Y-80854955D01*
X132807010Y-80750721D01*
X132841318Y-80637621D01*
X132852903Y-80520000D01*
X132852903Y-79020000D01*
X132841318Y-78902379D01*
X132807010Y-78789279D01*
X132751296Y-78685045D01*
X132676317Y-78593683D01*
X132584955Y-78518704D01*
X132480721Y-78462990D01*
X132367621Y-78428682D01*
X132250000Y-78417097D01*
X130550000Y-78417097D01*
X130432379Y-78428682D01*
X130319279Y-78462990D01*
X130215045Y-78518704D01*
X130123683Y-78593683D01*
X130048704Y-78685045D01*
X129992990Y-78789279D01*
X129958682Y-78902379D01*
X129947097Y-79020000D01*
X115052903Y-79020000D01*
X115041318Y-78902379D01*
X115007010Y-78789279D01*
X114951296Y-78685045D01*
X114876317Y-78593683D01*
X114784955Y-78518704D01*
X114680721Y-78462990D01*
X114567621Y-78428682D01*
X114450000Y-78417097D01*
X112750000Y-78417097D01*
X112632379Y-78428682D01*
X112519279Y-78462990D01*
X112415045Y-78518704D01*
X112323683Y-78593683D01*
X112248704Y-78685045D01*
X112192990Y-78789279D01*
X112158682Y-78902379D01*
X112147097Y-79020000D01*
X104777060Y-79020000D01*
X103307015Y-68729691D01*
X103340506Y-68716815D01*
X103477251Y-68700000D01*
X103847928Y-68700000D01*
X103868703Y-68698918D01*
X104075324Y-68677339D01*
X104115976Y-68668754D01*
X104206661Y-68639487D01*
X104362230Y-68639487D01*
X104582376Y-68595697D01*
X104789749Y-68509800D01*
X104940966Y-68408760D01*
X111097097Y-74564892D01*
X111097097Y-74737499D01*
X111113245Y-74901453D01*
X111161069Y-75059107D01*
X111238730Y-75204402D01*
X111343245Y-75331754D01*
X111470597Y-75436269D01*
X111615892Y-75513930D01*
X111773546Y-75561754D01*
X111937500Y-75577902D01*
X112110107Y-75577902D01*
X114362345Y-77830140D01*
X114390523Y-77864475D01*
X114424858Y-77892653D01*
X114424860Y-77892655D01*
X114431438Y-77898053D01*
X114527566Y-77976943D01*
X114683917Y-78060514D01*
X114853567Y-78111977D01*
X115029997Y-78129354D01*
X115074204Y-78125000D01*
X116119207Y-78125000D01*
X116251431Y-78111977D01*
X116421081Y-78060514D01*
X116577432Y-77976943D01*
X116714475Y-77864475D01*
X116826943Y-77727432D01*
X116910514Y-77571081D01*
X116961977Y-77401431D01*
X116966140Y-77359165D01*
X117237477Y-77087828D01*
X117265132Y-77065132D01*
X117299789Y-77022903D01*
X117375000Y-77022903D01*
X117492621Y-77011318D01*
X117500000Y-77009080D01*
X117507379Y-77011318D01*
X117625000Y-77022903D01*
X117875000Y-77022903D01*
X117992621Y-77011318D01*
X118105721Y-76977010D01*
X118209955Y-76921296D01*
X118301317Y-76846317D01*
X118376296Y-76754955D01*
X118432010Y-76650721D01*
X118466318Y-76537621D01*
X118477903Y-76420000D01*
X118477903Y-75320000D01*
X118466318Y-75202379D01*
X118432010Y-75089279D01*
X118376296Y-74985045D01*
X118301317Y-74893683D01*
X118209955Y-74818704D01*
X118126310Y-74773995D01*
X118222401Y-74677903D01*
X118562500Y-74677903D01*
X118726454Y-74661755D01*
X118884108Y-74613931D01*
X119029403Y-74536270D01*
X119150000Y-74437299D01*
X119270597Y-74536270D01*
X119415892Y-74613931D01*
X119573546Y-74661755D01*
X119737500Y-74677903D01*
X120312500Y-74677903D01*
X120476454Y-74661755D01*
X120525001Y-74647028D01*
X120525001Y-74726946D01*
X120507379Y-74728682D01*
X120394279Y-74762990D01*
X120290045Y-74818704D01*
X120198683Y-74893683D01*
X120123704Y-74985045D01*
X120067990Y-75089279D01*
X120033682Y-75202379D01*
X120022097Y-75320000D01*
X120022097Y-76420000D01*
X120033682Y-76537621D01*
X120067990Y-76650721D01*
X120123704Y-76754955D01*
X120198683Y-76846317D01*
X120290045Y-76921296D01*
X120394279Y-76977010D01*
X120507379Y-77011318D01*
X120625000Y-77022903D01*
X120875000Y-77022903D01*
X120992621Y-77011318D01*
X121000000Y-77009080D01*
X121007379Y-77011318D01*
X121125000Y-77022903D01*
X121375000Y-77022903D01*
X121492621Y-77011318D01*
X121500000Y-77009080D01*
X121507379Y-77011318D01*
X121625000Y-77022903D01*
X121875000Y-77022903D01*
X121992621Y-77011318D01*
X122105721Y-76977010D01*
X122209955Y-76921296D01*
X122301317Y-76846317D01*
X122376296Y-76754955D01*
X122432010Y-76650721D01*
X122466318Y-76537621D01*
X122477903Y-76420000D01*
X122477903Y-75320000D01*
X122476918Y-75310000D01*
X123523082Y-75310000D01*
X123522097Y-75320000D01*
X123522097Y-76420000D01*
X123533682Y-76537621D01*
X123567990Y-76650721D01*
X123623704Y-76754955D01*
X123698683Y-76846317D01*
X123790045Y-76921296D01*
X123894279Y-76977010D01*
X124007379Y-77011318D01*
X124125000Y-77022903D01*
X124375000Y-77022903D01*
X124492621Y-77011318D01*
X124500000Y-77009080D01*
X124507379Y-77011318D01*
X124625000Y-77022903D01*
X124875000Y-77022903D01*
X124992621Y-77011318D01*
X125000000Y-77009080D01*
X125007379Y-77011318D01*
X125125000Y-77022903D01*
X125375000Y-77022903D01*
X125492621Y-77011318D01*
X125500000Y-77009080D01*
X125507379Y-77011318D01*
X125625000Y-77022903D01*
X125875000Y-77022903D01*
X125992621Y-77011318D01*
X126000000Y-77009080D01*
X126007379Y-77011318D01*
X126125000Y-77022903D01*
X126375000Y-77022903D01*
X126492621Y-77011318D01*
X126500000Y-77009080D01*
X126507379Y-77011318D01*
X126625000Y-77022903D01*
X126875000Y-77022903D01*
X126992621Y-77011318D01*
X127000000Y-77009080D01*
X127007379Y-77011318D01*
X127125000Y-77022903D01*
X127375000Y-77022903D01*
X127492621Y-77011318D01*
X127500000Y-77009080D01*
X127507379Y-77011318D01*
X127625000Y-77022903D01*
X127875000Y-77022903D01*
X127992621Y-77011318D01*
X128000000Y-77009080D01*
X128007379Y-77011318D01*
X128125000Y-77022903D01*
X128375000Y-77022903D01*
X128492621Y-77011318D01*
X128605721Y-76977010D01*
X128709955Y-76921296D01*
X128750000Y-76888432D01*
X128790045Y-76921296D01*
X128894279Y-76977010D01*
X129007379Y-77011318D01*
X129125000Y-77022903D01*
X129375000Y-77022903D01*
X129492621Y-77011318D01*
X129605721Y-76977010D01*
X129709955Y-76921296D01*
X129801317Y-76846317D01*
X129876296Y-76754955D01*
X129932010Y-76650721D01*
X129966318Y-76537621D01*
X129977903Y-76420000D01*
X129977903Y-75320000D01*
X129966318Y-75202379D01*
X129932010Y-75089279D01*
X129876296Y-74985045D01*
X129855415Y-74959601D01*
X129874108Y-74953931D01*
X130019403Y-74876270D01*
X130146755Y-74771755D01*
X130251270Y-74644403D01*
X130328931Y-74499108D01*
X130376755Y-74341454D01*
X130392903Y-74177500D01*
X130392903Y-73602500D01*
X130376755Y-73438546D01*
X130328931Y-73280892D01*
X130251270Y-73135597D01*
X130146755Y-73008245D01*
X130019403Y-72903730D01*
X129874108Y-72826069D01*
X129716454Y-72778245D01*
X129552500Y-72762097D01*
X129077500Y-72762097D01*
X128913546Y-72778245D01*
X128755892Y-72826069D01*
X128610597Y-72903730D01*
X128527500Y-72971926D01*
X128444403Y-72903730D01*
X128299108Y-72826069D01*
X128141454Y-72778245D01*
X127977500Y-72762097D01*
X127502500Y-72762097D01*
X127338546Y-72778245D01*
X127180892Y-72826069D01*
X127035597Y-72903730D01*
X126952500Y-72971926D01*
X126869403Y-72903730D01*
X126724108Y-72826069D01*
X126566454Y-72778245D01*
X126402500Y-72762097D01*
X125975000Y-72762097D01*
X125975000Y-70588879D01*
X126127616Y-70486904D01*
X126266904Y-70347616D01*
X126376342Y-70183831D01*
X126451724Y-70001842D01*
X126490153Y-69808644D01*
X126490153Y-69611662D01*
X126451724Y-69418464D01*
X126376342Y-69236475D01*
X126266904Y-69072690D01*
X126197259Y-69003045D01*
X138087477Y-57112828D01*
X138115132Y-57090132D01*
X138115240Y-57090000D01*
X140381512Y-57090000D01*
X141694323Y-66279681D01*
G36*
X113370597Y-74236270D02*
G01*
X113515892Y-74313931D01*
X113673546Y-74361755D01*
X113718379Y-74366171D01*
X114719863Y-75367655D01*
X114822568Y-75451943D01*
X114978918Y-75535514D01*
X115022097Y-75548612D01*
X115022097Y-75944306D01*
X113252903Y-74175112D01*
X113252903Y-74162499D01*
X113250458Y-74137675D01*
X113370597Y-74236270D01*
G37*
X113370597Y-74236270D02*
X113515892Y-74313931D01*
X113673546Y-74361755D01*
X113718379Y-74366171D01*
X114719863Y-75367655D01*
X114822568Y-75451943D01*
X114978918Y-75535514D01*
X115022097Y-75548612D01*
X115022097Y-75944306D01*
X113252903Y-74175112D01*
X113252903Y-74162499D01*
X113250458Y-74137675D01*
X113370597Y-74236270D01*
G36*
X108762170Y-64137474D02*
G01*
X108762173Y-64137477D01*
X108784869Y-64165132D01*
X108812524Y-64187828D01*
X109187168Y-64562472D01*
X109209868Y-64590132D01*
X109320263Y-64680731D01*
X109446212Y-64748053D01*
X109582875Y-64789509D01*
X109689393Y-64800000D01*
X109689403Y-64800000D01*
X109725000Y-64803506D01*
X109760597Y-64800000D01*
X118774696Y-64800000D01*
X120525000Y-66550305D01*
X120525000Y-68397097D01*
X119775000Y-68397097D01*
X119657379Y-68408682D01*
X119544279Y-68442990D01*
X119440045Y-68498704D01*
X119348683Y-68573683D01*
X119273704Y-68665045D01*
X119217990Y-68769279D01*
X119183682Y-68882379D01*
X119172097Y-69000000D01*
X119172097Y-69577599D01*
X118787524Y-69962172D01*
X118759868Y-69984869D01*
X118669269Y-70095264D01*
X118601947Y-70221213D01*
X118560491Y-70357876D01*
X118550000Y-70464394D01*
X118550000Y-70464403D01*
X118546494Y-70500000D01*
X118550000Y-70535597D01*
X118550000Y-70699695D01*
X118352598Y-70897097D01*
X117775000Y-70897097D01*
X117657379Y-70908682D01*
X117544279Y-70942990D01*
X117440045Y-70998704D01*
X117348683Y-71073683D01*
X117273704Y-71165045D01*
X117217990Y-71269279D01*
X117183682Y-71382379D01*
X117172097Y-71500000D01*
X117172097Y-72125524D01*
X117128094Y-72071906D01*
X116998848Y-71965837D01*
X116851392Y-71887020D01*
X116691394Y-71838485D01*
X116525001Y-71822097D01*
X115674999Y-71822097D01*
X115508606Y-71838485D01*
X115348608Y-71887020D01*
X115201152Y-71965837D01*
X115071906Y-72071906D01*
X114965837Y-72201152D01*
X114887020Y-72348608D01*
X114886184Y-72351363D01*
X114779403Y-72263730D01*
X114634108Y-72186069D01*
X114476454Y-72138245D01*
X114312500Y-72122097D01*
X114019889Y-72122097D01*
X107310010Y-65412218D01*
X107310010Y-64102903D01*
X108725000Y-64102903D01*
X108733140Y-64102101D01*
X108762170Y-64137474D01*
G37*
X108762170Y-64137474D02*
X108762173Y-64137477D01*
X108784869Y-64165132D01*
X108812524Y-64187828D01*
X109187168Y-64562472D01*
X109209868Y-64590132D01*
X109320263Y-64680731D01*
X109446212Y-64748053D01*
X109582875Y-64789509D01*
X109689393Y-64800000D01*
X109689403Y-64800000D01*
X109725000Y-64803506D01*
X109760597Y-64800000D01*
X118774696Y-64800000D01*
X120525000Y-66550305D01*
X120525000Y-68397097D01*
X119775000Y-68397097D01*
X119657379Y-68408682D01*
X119544279Y-68442990D01*
X119440045Y-68498704D01*
X119348683Y-68573683D01*
X119273704Y-68665045D01*
X119217990Y-68769279D01*
X119183682Y-68882379D01*
X119172097Y-69000000D01*
X119172097Y-69577599D01*
X118787524Y-69962172D01*
X118759868Y-69984869D01*
X118669269Y-70095264D01*
X118601947Y-70221213D01*
X118560491Y-70357876D01*
X118550000Y-70464394D01*
X118550000Y-70464403D01*
X118546494Y-70500000D01*
X118550000Y-70535597D01*
X118550000Y-70699695D01*
X118352598Y-70897097D01*
X117775000Y-70897097D01*
X117657379Y-70908682D01*
X117544279Y-70942990D01*
X117440045Y-70998704D01*
X117348683Y-71073683D01*
X117273704Y-71165045D01*
X117217990Y-71269279D01*
X117183682Y-71382379D01*
X117172097Y-71500000D01*
X117172097Y-72125524D01*
X117128094Y-72071906D01*
X116998848Y-71965837D01*
X116851392Y-71887020D01*
X116691394Y-71838485D01*
X116525001Y-71822097D01*
X115674999Y-71822097D01*
X115508606Y-71838485D01*
X115348608Y-71887020D01*
X115201152Y-71965837D01*
X115071906Y-72071906D01*
X114965837Y-72201152D01*
X114887020Y-72348608D01*
X114886184Y-72351363D01*
X114779403Y-72263730D01*
X114634108Y-72186069D01*
X114476454Y-72138245D01*
X114312500Y-72122097D01*
X114019889Y-72122097D01*
X107310010Y-65412218D01*
X107310010Y-64102903D01*
X108725000Y-64102903D01*
X108733140Y-64102101D01*
X108762170Y-64137474D01*
G36*
X106498683Y-55326317D02*
G01*
X106590045Y-55401296D01*
X106694279Y-55457010D01*
X106807379Y-55491318D01*
X106925000Y-55502903D01*
X108425000Y-55502903D01*
X108500000Y-55495516D01*
X108500000Y-57264808D01*
X108412537Y-57323249D01*
X108273249Y-57462537D01*
X108163811Y-57626322D01*
X108134495Y-57697097D01*
X107239732Y-57697097D01*
X107225000Y-57695646D01*
X107210268Y-57697097D01*
X106925000Y-57697097D01*
X106807379Y-57708682D01*
X106694279Y-57742990D01*
X106590045Y-57798704D01*
X106498683Y-57873683D01*
X106423704Y-57965045D01*
X106367990Y-58069279D01*
X106333682Y-58182379D01*
X106329733Y-58222474D01*
X105134859Y-59417349D01*
X105063208Y-59345610D01*
X105028181Y-59317647D01*
X104883237Y-59226484D01*
X104842862Y-59207023D01*
X104681257Y-59150427D01*
X104637561Y-59140445D01*
X104468315Y-59121361D01*
X104332976Y-59104733D01*
X104330788Y-59103893D01*
X104882773Y-55240000D01*
X106427844Y-55240000D01*
X106498683Y-55326317D01*
G37*
X106498683Y-55326317D02*
X106590045Y-55401296D01*
X106694279Y-55457010D01*
X106807379Y-55491318D01*
X106925000Y-55502903D01*
X108425000Y-55502903D01*
X108500000Y-55495516D01*
X108500000Y-57264808D01*
X108412537Y-57323249D01*
X108273249Y-57462537D01*
X108163811Y-57626322D01*
X108134495Y-57697097D01*
X107239732Y-57697097D01*
X107225000Y-57695646D01*
X107210268Y-57697097D01*
X106925000Y-57697097D01*
X106807379Y-57708682D01*
X106694279Y-57742990D01*
X106590045Y-57798704D01*
X106498683Y-57873683D01*
X106423704Y-57965045D01*
X106367990Y-58069279D01*
X106333682Y-58182379D01*
X106329733Y-58222474D01*
X105134859Y-59417349D01*
X105063208Y-59345610D01*
X105028181Y-59317647D01*
X104883237Y-59226484D01*
X104842862Y-59207023D01*
X104681257Y-59150427D01*
X104637561Y-59140445D01*
X104468315Y-59121361D01*
X104332976Y-59104733D01*
X104330788Y-59103893D01*
X104882773Y-55240000D01*
X106427844Y-55240000D01*
X106498683Y-55326317D01*
%TD*%
M02*
